<svg width="146" height="127" viewBox="0 0 146 127" fill="none" xmlns="http://www.w3.org/2000/svg">
<g clip-path="url(#clip0_299_1599)">
<path d="M74.0317 -0.000320435C38.7269 -0.000320435 10.1064 28.4297 10.1064 63.4997C10.1064 98.57 38.7269 127 74.0317 127C109.337 127 137.957 98.57 137.957 63.4997C137.957 28.4297 109.337 -0.000320435 74.0317 -0.000320435ZM74.0317 1.97941C82.3933 1.97941 90.5038 3.60577 98.138 6.81326C105.513 9.91155 112.136 14.3478 117.824 19.9983C123.513 25.6488 127.979 32.2284 131.098 39.5538C134.327 47.1372 135.964 55.1937 135.964 63.4997C135.964 71.806 134.327 79.8625 131.098 87.4456C127.979 94.7712 123.513 101.351 117.824 107.001C112.136 112.652 105.513 117.088 98.138 120.186C90.5038 123.394 82.3933 125.02 74.0317 125.02C65.6701 125.02 57.5597 123.394 49.9255 120.186C42.5508 117.088 35.9274 112.652 30.239 107.001C24.5506 101.351 20.0848 94.7712 16.9657 87.4456C13.7366 79.8625 12.0994 71.806 12.0994 63.4997C12.0994 55.1937 13.7366 47.1372 16.9657 39.5538C20.0848 32.2284 24.5506 25.6488 30.239 19.9983C35.9274 14.3478 42.5508 9.91155 49.9255 6.81326C57.5597 3.60577 65.6701 1.97941 74.0317 1.97941Z" fill="#DADBD8"/>
<path d="M146.001 33.3401C146.001 27.4038 142.367 20.5074 137.885 17.9371C135.779 16.7294 133.861 16.6918 132.418 17.6068H132.418C131.115 18.4251 125.672 22.3073 125.552 22.3895C124.162 23.3345 123.045 23.9271 121.987 24.3689C121.38 24.6223 120.791 24.8275 120.181 25.0196C118.371 25.5881 112.372 26.9646 108.956 28.2178C105.54 29.4713 102.392 30.8822 101.079 31.7315L105.191 38.3405C106.07 38.4059 104.137 40.0906 102.968 41.1692C102.276 41.8037 101.426 42.8392 100.845 43.5812C100.268 44.3183 99.6331 45.0047 98.9461 45.6421C97.5769 46.9131 95.2627 48.939 93.0804 50.2747C89.6917 52.3498 85.7585 54.5282 84.3242 55.8533C82.8903 57.182 82.3558 59.0106 83.5795 59.9045C84.762 60.7709 87.3924 60.0826 87.5578 60.0414C87.4303 60.0962 85.3792 61.0346 84.8756 63.0823C84.6863 63.8494 85.2895 64.7535 85.8376 65.127C87.6545 66.363 90.3364 65.0858 91.788 64.3051C91.788 64.3051 90.7984 65.2329 90.4709 66.305C90.2088 67.1678 90.364 68.12 91.0499 68.5651C92.529 69.5204 94.5629 69.5992 101.144 65.6784C101.144 65.6784 100.731 66.2228 100.689 66.8563C100.682 66.8906 100.682 66.9282 100.682 66.9622C100.682 67.1612 100.72 67.3595 100.82 67.5548C100.868 67.6508 100.934 67.7465 101.017 67.8389C101.21 68.0514 101.499 68.2431 101.927 68.3972C104.157 69.202 110.124 65.3666 114.172 62.8701C118.219 60.3773 123.942 56.2987 126.772 53.696C130.916 49.8913 130.275 48.0901 134.277 44.9192C135.232 44.159 136.452 43.3268 138.062 42.368C138.18 42.3132 141.141 40.8363 142.665 40.1144L142.665 40.1117C144.686 39.3159 146.001 36.9089 146.001 33.3401Z" fill="#FFBE9D"/>
<path d="M83.9935 58.878C84.8139 59.3485 85.9516 59.1766 87.8094 58.516C89.6672 57.8555 94.1587 55.5372 95.7966 54.5978C96.7287 54.0633 100.36 51.9559 103.318 50.2388C103.513 50.1253 103.693 50.4064 103.506 50.5337C100.914 52.2983 97.7368 54.4384 96.3238 55.3039C93.1656 57.2384 90.5458 58.5164 87.5639 60.0391C87.5639 60.0391 84.8 60.7987 83.5786 59.9051C82.7897 59.3277 82.7352 58.36 83.18 57.3896C83.18 57.3899 83.1733 58.4075 83.9935 58.878Z" fill="#F47089"/>
<path d="M86.2274 64.4387C87.7357 64.8667 90.2595 63.5743 91.2819 63.0579C92.304 62.5415 99.3041 58.8044 100.476 58.1049C101.926 57.2384 104.512 55.6929 107.203 54.0857C107.594 53.8524 107.963 54.4196 107.586 54.674C104.123 57.0111 99.9548 59.3148 97.9412 60.4258C95.1546 61.9631 93.3895 63.1192 91.7891 64.3048C90.3382 65.0871 87.656 66.3647 85.8374 65.1283C85.288 64.7545 84.6871 63.8498 84.8764 63.081C84.8764 63.081 84.9037 64.0629 86.2274 64.4387Z" fill="#F47089"/>
<path d="M91.05 68.5635C90.4302 68.1619 90.2458 67.345 90.4099 66.5547C90.4122 66.6316 90.4647 67.6627 91.6087 67.8445C92.7965 68.0333 93.8721 67.7561 95.306 67.2536C96.7901 66.7332 101.225 63.9418 102.66 63.1588C103.555 62.6702 108.769 59.4237 112.568 57.049C112.802 56.9025 112.845 57.2246 112.614 57.3767C109.8 59.2264 108.261 60.34 106.985 61.2299C104.606 62.8873 102.309 64.3444 101.145 65.6771C94.5633 69.5989 92.5288 69.522 91.05 68.5635Z" fill="#F47089"/>
<path d="M130.975 43.2582C130.923 43.3097 130.871 43.3575 130.823 43.409C128.861 45.3541 128.141 47.3503 126.776 50.4839C125.373 53.696 119.774 57.1035 114.172 61.0244C108.57 64.9419 104.767 67.144 102.968 67.6611C102.637 67.7568 102.354 67.7947 102.106 67.7947C101.451 67.7947 100.996 67.4562 100.704 66.95L100.685 66.9124L100.682 66.9622C100.682 67.1612 100.72 67.3595 100.82 67.5548C100.868 67.6509 100.934 67.7465 101.017 67.8389C101.21 68.0514 101.499 68.2431 101.927 68.3972C104.157 69.202 110.125 65.3666 114.172 62.8701C118.219 60.3773 123.942 56.2987 126.772 53.696C130.916 49.8913 130.275 48.0901 134.277 44.9192C135.232 44.159 136.452 43.3268 138.062 42.368C138.18 42.3132 141.141 40.8363 142.665 40.1144L142.665 40.1118C144.567 39.3628 145.843 37.1857 145.987 33.9568C141.813 36.4911 132.432 41.8592 130.975 43.2582Z" fill="#EB996E"/>
<path d="M105.056 39.1387C105.429 38.6923 105.567 38.3683 105.19 38.3415C105.198 38.3419 105.207 38.3425 105.215 38.3429C105.561 38.3828 105.421 38.7022 105.056 39.1387Z" fill="#F9AFBD"/>
<path d="M119.66 47.5133L107.177 40.3552L105.139 39.1865L105.056 39.1387C105.421 38.7022 105.561 38.3828 105.215 38.3428C107.188 38.4583 109.383 40.7905 114.829 41.2253C115.281 41.2613 115.732 41.2781 116.176 41.2781C121.104 41.2781 125.374 39.2413 125.374 39.2413C125.374 39.2413 120.47 42.0535 119.772 46.4693C119.716 46.8191 119.683 47.1692 119.66 47.5133Z" fill="#EB996E"/>
<path d="M101.567 47.2728C102.985 49.9117 109.241 56.5247 115.401 57.8102C115.401 57.8102 110.831 58.0772 106.631 54.5978C102.43 51.1184 101.567 47.2728 101.567 47.2728Z" fill="#F47089"/>
<path d="M130.055 54.9027L92.9212 33.672L74.3555 44.2877L111.489 65.5187L130.055 54.9027Z" fill="#DB6C1D"/>
<path d="M111.489 65.5187L110.641 65.034L109.322 64.2794L105.626 62.1667L104.952 61.7813L100.291 59.1162L99.4928 58.6599L95.8542 56.5795L96.8311 56.0209L111.489 64.4011L128.101 54.9027L124.357 52.7619L124.67 52.5828L124.69 52.5669C124.934 52.4227 125.055 52.2343 125.057 52.0453L130.055 54.9027L111.489 65.5187ZM111.489 63.8425L97.3197 55.7414L98.4826 55.0762L100.325 56.1327C100.264 56.1258 100.204 56.1182 100.144 56.1106L99.3263 56.0064L109.533 61.8776L110.593 61.2702C110.839 61.1303 111.162 61.0603 111.485 61.0603C111.81 61.0603 112.136 61.1313 112.383 61.2728L113.442 61.8773L123.624 56.0935L122.397 55.393C122.188 55.2735 122.074 55.1257 122.074 54.9756C122.074 54.8261 122.189 54.679 122.397 54.5605L123.622 53.8587L123.034 53.5202L123.869 53.0417L127.124 54.9027L111.489 63.8425ZM89.649 53.0318L74.3555 44.2877L92.9212 33.672L100.93 38.2508L98.2239 36.704C97.9505 36.9204 97.6765 37.1359 97.4018 37.3507L92.9215 34.7892L76.3096 44.288L90.6259 52.4732L89.649 53.0318ZM91.1145 52.1937L77.2868 44.2877L92.9215 35.3482L96.9879 37.673C96.757 37.8519 96.5259 38.0301 96.2937 38.2072L94.9036 37.415L93.8443 38.0221C93.6021 38.1604 93.2763 38.2293 92.9508 38.2293C92.6249 38.2293 92.299 38.1604 92.0569 38.0225L90.998 37.415L80.8337 43.1477L82.0614 43.8521C82.268 43.9696 82.3822 44.1168 82.3822 44.2666C82.3826 44.4164 82.2683 44.5642 82.061 44.6833L80.8347 45.3838L91.9426 51.7199L91.1145 52.1937ZM91.9712 51.7038L91.7765 51.2804C91.7666 51.2586 91.7566 51.2362 91.747 51.2131L92.2871 51.5229L91.9712 51.7038Z" fill="#D2D2D2"/>
<path d="M77.2868 44.2877L92.9215 35.3482L127.124 54.9027L111.489 63.8425L77.2868 44.2877ZM76.3096 44.288L111.489 64.4011L128.101 54.9027L92.9215 34.7892L76.3096 44.288Z" fill="#DB6C1D"/>
<path d="M101.512 44.4233C99.2737 44.4233 97.0913 44.8882 95.4481 45.8276C93.8933 46.7165 93.0369 47.9142 93.0369 49.2001C93.0369 50.6152 94.0942 52.0314 95.9367 53.085C99.6623 55.2155 105.505 55.3412 108.962 53.3648C110.517 52.4755 111.373 51.2778 111.373 49.992C111.373 48.5768 110.316 47.1606 108.474 46.1067C106.519 44.9895 103.981 44.4233 101.512 44.4233ZM102.899 55.0931C100.368 55.0931 97.771 54.5143 95.7703 53.37C93.8218 52.2561 92.7041 50.7363 92.7041 49.2001C92.7041 47.7918 93.6196 46.4924 95.2817 45.5425C98.8299 43.5136 104.822 43.6386 108.64 45.8216C110.589 46.9359 111.706 48.4557 111.706 49.992C111.706 51.4005 110.79 52.6996 109.128 53.6498C107.44 54.6153 105.197 55.0931 102.899 55.0931Z" fill="#DB6C1D"/>
<path d="M109.534 61.8776L99.3267 56.0064L100.144 56.1106C100.205 56.1182 100.265 56.1258 100.325 56.1327L108.456 60.7957C108.717 60.9455 109.058 61.0204 109.399 61.0204C109.74 61.0207 110.081 60.9458 110.341 60.7963L113.819 58.8014L123.034 53.5201L123.623 53.8587L122.397 54.5605C122.189 54.679 122.074 54.8261 122.074 54.9756C122.074 55.1257 122.189 55.2735 122.397 55.393L123.624 56.0935L113.443 61.8773L112.383 61.2728C112.136 61.1312 111.811 61.0603 111.486 61.0603C111.162 61.0603 110.84 61.1302 110.593 61.2701L109.534 61.8776Z" fill="#DB6C1D"/>
<path d="M91.9429 51.7199L80.835 45.3838L82.0613 44.6833C82.2686 44.5642 82.3829 44.4163 82.3825 44.2665C82.3825 44.1167 82.2683 43.9696 82.0617 43.8521L80.834 43.1477L90.9982 37.415L92.0572 38.0225C92.2993 38.1604 92.6252 38.2293 92.951 38.2293C93.2766 38.2293 93.6024 38.1604 93.8446 38.0221L94.9039 37.415L96.294 38.2072C96.0797 38.3709 95.8648 38.5339 95.6489 38.6959C94.5056 39.5544 93.2214 40.2239 92.1685 41.197C91.9492 41.3996 91.7277 41.6341 91.6426 41.9116C91.2424 41.7622 90.787 41.6869 90.3399 41.6869C89.7878 41.6869 89.2487 41.8018 88.8425 42.0341C88.4186 42.2762 88.1855 42.6141 88.1855 42.9857C88.1855 43.3859 88.4661 43.7752 88.9551 44.055C89.2989 44.2517 89.7164 44.3784 90.1489 44.4338L87.5265 45.9378C87.2258 46.1103 87.1063 46.3462 87.1654 46.5693C87.1644 46.601 87.1587 46.8211 87.1554 47.0494L86.7641 47.2738C86.2489 47.5694 86.245 48.0459 86.7442 48.3422L86.7645 48.3557L91.7473 51.2131C91.7569 51.2362 91.7669 51.2586 91.7768 51.2804L91.9715 51.7037L91.9429 51.7199Z" fill="#DB6C1D"/>
<path d="M90.1485 44.4338C89.716 44.3784 89.2985 44.2517 88.9547 44.055C88.4657 43.7752 88.1851 43.3859 88.1851 42.9857C88.1851 42.6141 88.4182 42.2763 88.8421 42.0341C89.2483 41.8018 89.7874 41.687 90.3395 41.687C90.7866 41.687 91.242 41.7622 91.6422 41.9117C91.623 41.9737 91.611 42.0374 91.607 42.1037C91.5947 42.3046 91.6645 42.5026 91.7788 42.6709C91.813 42.7214 91.8515 42.7692 91.893 42.8134C92.0275 42.957 92.1913 43.0685 92.3654 43.1625L90.1485 44.4338Z" fill="#F19212"/>
<path d="M130.055 54.9027V59.3733L111.489 69.9889L111.489 65.5187L130.055 54.9027Z" fill="#DB6C1D"/>
<path d="M111.489 69.9889V67.9293L121.259 62.1673L111.489 67.5783V66.7857L117.351 63.2849L111.489 66.5151V65.5187L130.055 54.9027V59.3733L111.489 69.9889ZM130.054 58.0914L120.284 63.8425L130.054 58.42V58.0914ZM130.055 57.0256L128.1 58.2564L130.054 57.2516L130.055 57.0256Z" fill="#DB6C1D"/>
<path d="M111.489 66.7857V66.5194L111.489 66.5151L117.351 63.2849L111.489 66.7857Z" fill="#DB6C1D"/>
<path d="M128.1 58.2563L130.054 57.0256L130.053 57.2516L128.1 58.2563Z" fill="#DB6C1D"/>
<path d="M120.284 63.8425L130.054 58.0914V58.42L120.284 63.8425Z" fill="#DB6C1D"/>
<path d="M111.489 67.9293V67.5782L121.259 62.1673L111.489 67.9293Z" fill="#DB6C1D"/>
<path d="M111.489 69.9889L74.3555 48.7582V44.2877L111.489 65.5187L111.489 69.9889Z" fill="#DB6C1D"/>
<path d="M111.489 69.9889L106.657 67.2265L105.48 66.5534L102.191 64.6727L101.113 64.0566L96.3435 61.3296L95.8532 61.0494L95.6768 60.9485L95.5101 60.8531V60.8511L95.8532 61.0471V56.5802L95.8542 56.5795L111.489 65.5187L111.489 66.5151L109.532 65.5187L111.488 66.786L111.489 66.5194V69.9889ZM101.663 62.1406L111.488 67.93V67.5789L101.663 62.1406ZM89.6487 57.5021L74.3555 48.7582V47.6588V47.7657L78.2644 49.8751L74.3555 47.5153V46.437L74.3558 46.6544L81.1957 50.4341L74.3555 46.3915V44.2877L89.649 53.0318L89.6487 53.0322L90.2821 53.3945V53.3948L89.6487 53.0322V57.5021Z" fill="#DB6C1D"/>
<path d="M111.489 66.5194V66.5144H111.489L111.489 66.5194Z" fill="#DB6C1D"/>
<path d="M111.488 66.786L109.532 65.5187L111.489 66.5151L111.489 66.5194L111.488 66.786Z" fill="#D96D1F"/>
<path d="M111.488 67.93L101.663 62.1406L111.488 67.5789V67.93Z" fill="#D96D1F"/>
<path d="M81.1957 50.4341L74.3558 46.6544L74.3555 46.437V46.3915L81.1957 50.4341Z" fill="#D96D1F"/>
<path d="M74.3558 47.6588L74.3555 47.515L74.3558 47.5153V47.6588Z" fill="#A7A9A8"/>
<path d="M78.2644 49.8751L74.3555 47.7657V47.5153L78.2644 49.8751Z" fill="#D96D1F"/>
<path d="M114.723 45.395L95.5103 56.3829L89.6489 53.0322L108.86 42.043L114.723 45.395Z" fill="#FAFAF9"/>
<path d="M89.6489 53.0322V57.895L95.5103 61.2461V56.3829L89.6489 53.0322Z" fill="#DADBD8"/>
<path d="M95.5103 61.2461L95.8534 61.0494L95.5103 60.8531V61.2461Z" fill="#DADBD8"/>
<path d="M114.723 45.395V46.1377L114.074 45.7659L114.723 45.395Z" fill="#DADBD8"/>
<path d="M95.8534 61.0471L95.5103 60.8511V56.3828L95.8534 56.5802V61.0471Z" fill="#D96D1F"/>
<path d="M95.8544 56.5795L95.5103 56.3828L96.4872 55.8242L96.8313 56.0209L95.8544 56.5795ZM97.3199 55.7414L96.9758 55.5448L98.1393 54.8792L98.4828 55.0762L97.3199 55.7414Z" fill="#BA98BB"/>
<path d="M96.8314 56.0209L96.4873 55.8242L96.9759 55.5448L97.32 55.7414L96.8314 56.0209Z" fill="#DB6C1D"/>
<path d="M95.8534 56.5802L95.5103 56.3829L95.8544 56.5795L95.8534 56.5802Z" fill="#DB6C1D"/>
<path d="M95.5103 56.3829L98.1393 54.8792L96.9758 55.5448L96.4872 55.8242L95.5103 56.3829Z" fill="#BFC0BE"/>
<path d="M114.091 45.0344L94.876 56.0202L94.3887 55.7411L113.602 44.7562L114.091 45.0344Z" fill="#33535F"/>
<path d="M109.985 42.688L90.7695 53.6739L90.2822 53.3948L109.495 42.4099L109.985 42.688Z" fill="#33535F"/>
<path d="M94.876 56.0202V60.8835L94.3887 60.605V55.7411L94.876 56.0202Z" fill="#17282F"/>
<path d="M90.7697 53.6739V58.5358L90.2808 58.2563L90.2824 53.3948L90.7697 53.6739Z" fill="#17282F"/>
<path d="M125.057 52.0453L124.357 51.6453L125.057 52.0449C125.057 52.0453 125.057 52.0449 125.057 52.0453Z" fill="#E16F7E"/>
<path d="M101.921 56.2449C101.387 56.2317 100.852 56.1941 100.325 56.1327L98.4829 55.0762L99.1838 54.6753L101.921 56.2449ZM123.034 53.5202L122.246 53.0668L123.078 52.5897L123.869 53.0417L123.034 53.5202ZM124.357 52.7619L123.566 52.3099L124.006 52.0575C124.21 51.9407 124.316 51.7965 124.358 51.6453L125.057 52.0453C125.055 52.2343 124.935 52.4227 124.69 52.5669L124.67 52.5827L124.357 52.7619Z" fill="#BA98BB"/>
<path d="M123.869 53.0417L123.078 52.5897L123.566 52.3099L124.357 52.7619L123.869 53.0417Z" fill="#DB6C1D"/>
<path d="M109.398 61.0204C109.057 61.0204 108.717 60.9455 108.455 60.7957L100.325 56.1327C100.852 56.1941 101.386 56.2317 101.921 56.2449L108.406 59.9629C108.655 60.1081 108.983 60.18 109.311 60.18C109.64 60.18 109.969 60.1077 110.22 59.9635L114.037 57.7743C114.586 57.773 115.121 57.6581 115.524 57.4272C115.921 57.2005 116.151 56.8897 116.178 56.5465L122.245 53.0668L123.034 53.5202L113.819 58.8014L110.341 60.7963C110.08 60.9458 109.739 61.0207 109.398 61.0204Z" fill="#D96D1F"/>
<path d="M114.038 57.7743L116.179 56.5465C116.151 56.8897 115.921 57.2005 115.525 57.4271C115.121 57.6581 114.586 57.7729 114.038 57.7743Z" fill="#F19212"/>
<path d="M98.1391 54.8792L97.5063 54.5163L98.2072 54.1157L98.8399 54.4783L98.1391 54.8792ZM97.019 54.2368L93.4077 52.1657L94.1079 51.7655L97.7199 53.8363L97.019 54.2368Z" fill="#BFC0BE"/>
<path d="M92.2869 51.5229L91.7468 51.2131C91.6332 50.9452 91.5406 50.604 91.4731 50.2549L92.9868 51.1227L92.2869 51.5229Z" fill="#BA98BB"/>
<path d="M91.7471 51.2131L86.7643 48.3557L86.744 48.3422C86.2448 48.0459 86.2488 47.5694 86.764 47.2738L87.1553 47.0494C87.1526 47.2315 87.1516 47.419 87.1556 47.5202C87.1599 47.6938 87.3014 47.8611 87.5266 47.9921L91.4734 50.2549C91.5408 50.604 91.6335 50.9452 91.7471 51.2131Z" fill="#D96D1F"/>
<path d="M92.9205 51.8862L92.2871 51.5229L92.987 51.1227L93.6204 51.486L92.9205 51.8862Z" fill="#BFC0BE"/>
<path d="M98.4826 55.0762L98.1392 54.8793L98.7095 54.5533C98.8626 54.5942 99.0171 54.6328 99.1729 54.6694L99.1835 54.6753L98.4826 55.0762Z" fill="#8F7793"/>
<path d="M99.1728 54.6694C99.0171 54.6328 98.8626 54.5942 98.7095 54.5533L98.84 54.4784L99.1728 54.6694Z" fill="#DB6C1D"/>
<path d="M98.1392 54.8792L98.84 54.4783L98.7095 54.5532L98.1392 54.8792Z" fill="#939595"/>
<path d="M97.5063 54.5163L97.019 54.2368L97.7199 53.8363L98.2072 54.1157L97.5063 54.5163Z" fill="#263F48"/>
<path d="M93.4077 52.1657L92.9204 51.8862L93.6203 51.486L94.1079 51.7654L93.4077 52.1657Z" fill="#263F48"/>
<path d="M109.309 59.168C109.048 59.168 108.787 59.1222 108.564 59.0304C108.634 59.0595 108.708 59.0835 108.785 59.1033C108.951 59.1462 109.13 59.168 109.309 59.168Z" fill="#D96D1F"/>
<path d="M110.22 59.9635L124.006 52.0575C124.278 51.9014 124.377 51.6965 124.378 51.4913C124.381 51.2814 124.382 50.5199 124.382 50.5199L124.007 51.0475L113.564 57.0325L110.217 58.9522C109.715 59.2399 108.905 59.2403 108.402 58.9516L87.5266 46.9791L87.1652 46.5654C87.1652 46.5654 87.1459 47.2814 87.1555 47.5202C87.1598 47.6938 87.3013 47.8611 87.5266 47.9921L108.406 59.9629C108.905 60.2532 109.719 60.2513 110.22 59.9635Z" fill="#DADBD8"/>
<path d="M109.556 60.1665V59.1545C109.564 59.1535 109.571 59.1528 109.579 59.1518C109.801 59.1245 110.013 59.0631 110.19 58.9671C110.19 58.9671 110.191 58.9671 110.191 58.9667C110.192 58.9661 110.194 58.9654 110.195 58.9644H110.195C110.198 58.9631 110.2 58.9618 110.202 58.9605C110.203 58.9601 110.204 58.9598 110.204 58.9595C110.205 58.9588 110.206 58.9585 110.207 58.9578C110.208 58.9575 110.209 58.9568 110.21 58.9562C110.211 58.9559 110.212 58.9555 110.212 58.9549C110.214 58.9539 110.216 58.9532 110.217 58.9522L113.565 57.0325L120.032 53.3255L120.033 53.3261V54.3358L124.006 52.0575L110.221 59.9635C110.032 60.0718 109.799 60.1394 109.556 60.1665Z" fill="#C0C1BF"/>
<path d="M120.033 53.3252V54.3358L124.006 52.0575C124.278 51.9014 124.377 51.6965 124.379 51.4913C124.382 51.2814 124.382 50.5199 124.382 50.5199L124.008 51.0475L120.033 53.3252Z" fill="#DB6C1D"/>
<path d="M120.033 54.3358V53.3261L120.035 53.3268L124.007 51.0488C124.258 50.9049 124.382 50.7172 124.382 50.5291C124.382 50.5265 124.382 50.5238 124.382 50.5212L124.382 50.5199C124.382 50.5199 124.382 51.2814 124.379 51.4913C124.377 51.6965 124.278 51.9014 124.006 52.0575L120.033 54.3358Z" fill="#DB6C1D"/>
<path d="M124.007 51.0475L124.027 51.0323C124.507 50.7488 124.498 50.2892 124.007 50.0061L103.126 38.0324C102.625 37.7469 101.813 37.744 101.311 38.032L87.5262 45.9378C87.0302 46.2222 87.0266 46.6808 87.5069 46.9662L87.5265 46.9791L108.402 58.9516C108.905 59.2403 109.715 59.2399 110.217 58.9522L113.564 57.0325L124.007 51.0475Z" fill="#FAFAF9"/>
<path d="M102.216 37.8172C101.889 37.8172 101.562 37.8885 101.311 38.032L87.5262 45.9378C87.0302 46.2222 87.0266 46.6808 87.5069 46.9662L87.5265 46.9791L108.402 58.9516C108.654 59.0958 108.982 59.168 109.31 59.168C109.638 59.168 109.966 59.0961 110.217 58.9522L113.564 57.0325L124.007 51.0475L124.027 51.0323C124.507 50.7489 124.498 50.2892 124.007 50.0061L103.126 38.0324C102.875 37.8892 102.546 37.8172 102.216 37.8172ZM102.216 38.0663C102.512 38.0663 102.798 38.133 103 38.2485L123.881 50.2219C124.039 50.313 124.129 50.4239 124.13 50.5265C124.13 50.6245 124.046 50.7307 123.899 50.8178L123.849 50.8469L123.845 50.8521L113.439 56.8164L110.091 58.7361C109.889 58.8523 109.605 58.9186 109.31 58.9186C109.016 58.9186 108.731 58.8519 108.528 58.7354L87.66 46.7679L87.6358 46.7521C87.486 46.6633 87.4006 46.5558 87.4013 46.4568C87.4023 46.3552 87.4933 46.2446 87.6517 46.1539L101.437 38.2478C101.638 38.1327 101.922 38.0663 102.216 38.0663Z" fill="#E7E8E5"/>
<path d="M97.3408 40.3117L101.313 38.0324L101.339 38.0215C101.833 37.746 102.634 37.7509 103.128 38.0327L124.006 50.0081C124.504 50.2952 124.509 50.7607 124.007 51.0488L120.035 53.3268L97.3408 40.3117Z" fill="#DB6C1D"/>
<path d="M94.0388 45.3716L93.6352 45.1396L93.605 45.1033L93.6259 45.0683L93.6874 45.0561L93.7518 45.073L93.8863 45.1502L94.4686 44.8159C94.5008 44.7975 94.5154 44.7747 94.5118 44.747C94.5085 44.7193 94.4885 44.6945 94.4527 44.6734L94.4507 44.6721L94.4198 44.6351L94.4414 44.6005L94.5022 44.5879L94.5669 44.6051C94.6417 44.648 94.6822 44.6975 94.6892 44.7536C94.6965 44.81 94.6676 44.8565 94.6035 44.8935L94.0209 45.2274L94.1554 45.3046L94.1859 45.3419L94.1637 45.3765L94.1032 45.3891L94.0388 45.3716Z" fill="#DADBD8"/>
<path d="M95.2636 45.6732L94.9946 45.5184C94.9573 45.4976 94.9142 45.4858 94.8653 45.4838C94.8162 45.4818 94.7757 45.49 94.7438 45.5085L94.6561 45.5587L94.6454 45.5758L94.6604 45.5943L95.2334 45.9226L95.2636 45.9599L95.242 45.9952L95.1812 46.0074L95.1168 45.9896L94.4432 45.6032L94.4126 45.5666L94.4342 45.5316L94.6092 45.4313C94.6733 45.3944 94.7544 45.3779 94.8524 45.3818C94.9507 45.3861 95.0367 45.4095 95.1108 45.4518L95.3802 45.6062C95.4174 45.6276 95.4606 45.6392 95.5101 45.6415C95.5592 45.6438 95.6001 45.6356 95.6323 45.6171L95.7486 45.5504C95.7808 45.5319 95.7951 45.5085 95.7914 45.4805C95.7881 45.4524 95.7672 45.4274 95.7296 45.4059L95.4602 45.2512C95.4234 45.2304 95.3802 45.2185 95.3314 45.2165C95.2822 45.2145 95.2417 45.2228 95.2095 45.2413L95.1487 45.2538L95.0846 45.2363L95.0533 45.199L95.0749 45.164C95.1394 45.1271 95.2204 45.1109 95.3184 45.1146C95.4167 45.1188 95.5028 45.1423 95.5768 45.1845L95.8462 45.3389C95.921 45.3818 95.9621 45.4316 95.9691 45.4877C95.9758 45.5438 95.9475 45.5907 95.8831 45.6276L95.7668 45.6943C95.7024 45.7312 95.621 45.7474 95.523 45.7438C95.425 45.7395 95.3383 45.7157 95.2636 45.6732Z" fill="#DADBD8"/>
<path d="M96.5505 46.4776L96.4924 46.5109C96.4279 46.5479 96.3465 46.5644 96.2486 46.5604C96.1506 46.5564 96.0645 46.533 95.9901 46.4904L95.7211 46.336C95.647 46.2935 95.6061 46.244 95.5992 46.1879C95.5922 46.1318 95.6208 46.0849 95.6852 46.0483L95.7457 46.0361L95.8101 46.0533L95.8407 46.0905L95.8197 46.1255C95.7875 46.144 95.7732 46.1671 95.7765 46.1955C95.7802 46.2235 95.8008 46.2483 95.8377 46.2694L96.1067 46.4235C96.1439 46.4449 96.1868 46.4568 96.2359 46.4588C96.2851 46.4608 96.3256 46.4525 96.3575 46.434L96.416 46.4004C96.4482 46.3822 96.4625 46.3591 96.4588 46.3307C96.4555 46.3027 96.4349 46.278 96.3977 46.2565L96.3306 46.2179L96.2997 46.181L96.3213 46.1463L96.3821 46.1338L96.4472 46.1512L96.5143 46.1899C96.5515 46.211 96.5947 46.2228 96.6438 46.2248C96.6927 46.2268 96.7332 46.2186 96.7654 46.2001L96.8235 46.1668C96.8557 46.1483 96.87 46.1252 96.8667 46.0971C96.8631 46.0688 96.8428 46.044 96.8056 46.0226L96.5365 45.8685C96.4997 45.8474 96.4565 45.8355 96.4073 45.8335C96.3585 45.8315 96.318 45.8398 96.2858 45.8583L96.2243 45.8705L96.1595 45.8526L96.1293 45.816L96.1509 45.781C96.2153 45.7441 96.2964 45.7276 96.3947 45.7315C96.4927 45.7358 96.5787 45.7589 96.6531 45.8015L96.9222 45.9559C96.9963 45.9985 97.0371 46.048 97.0441 46.1041C97.0511 46.1605 97.0225 46.207 96.9581 46.2436L96.8999 46.2773C96.866 46.2968 96.8255 46.3106 96.7787 46.3185C96.7319 46.3265 96.6837 46.3284 96.6339 46.3251L96.6222 46.4083C96.6083 46.435 96.5844 46.4581 96.5505 46.4776Z" fill="#DADBD8"/>
<path d="M97.3329 47.2408L97.2678 47.2233L97.2372 47.1863L97.2595 47.1517L97.5823 46.9662C97.5192 46.9543 97.4637 46.9349 97.4162 46.9075L97.1468 46.7527C97.0728 46.7105 97.0323 46.661 97.0249 46.6046C97.018 46.5485 97.0469 46.502 97.111 46.4654L97.4023 46.2981L97.4624 46.2859L97.5272 46.303L97.5577 46.3403L97.5368 46.3753L97.2455 46.5422C97.2133 46.5607 97.199 46.5838 97.2023 46.6122C97.206 46.6402 97.2266 46.665 97.2634 46.6861L97.5325 46.8405C97.5697 46.862 97.6129 46.8735 97.6617 46.8755C97.7109 46.8775 97.7514 46.8692 97.7836 46.8511L98.0749 46.6838L98.135 46.6716L98.1998 46.6887L98.2304 46.726L98.2094 46.761L97.394 47.2289L97.3329 47.2408Z" fill="#DADBD8"/>
<path d="M99.4268 47.7601L99.4162 47.7773L99.4311 47.7958L99.8012 48.0082C99.8756 48.0508 99.9164 48.1 99.9234 48.1564C99.9301 48.2122 99.9018 48.259 99.8374 48.296L99.7208 48.3629C99.6567 48.3999 99.5753 48.4157 99.4773 48.4121C99.3793 48.4081 99.2933 48.3847 99.2189 48.3422L98.9495 48.1877C98.8754 48.1452 98.8349 48.096 98.8276 48.0393C98.821 47.9835 98.8495 47.937 98.914 47.9L98.9751 47.8875L99.0398 47.9053L99.0701 47.9422L99.0482 47.9772C99.0163 47.9957 99.0017 48.0188 99.0053 48.0468C99.009 48.0749 99.0292 48.0996 99.0661 48.1208L99.3355 48.2755C99.3724 48.2966 99.4155 48.3082 99.4644 48.3101C99.5135 48.3121 99.5544 48.3042 99.5863 48.2857L99.7029 48.2191C99.7351 48.2006 99.7494 48.1772 99.7457 48.1488C99.7424 48.1208 99.7221 48.0963 99.6849 48.0749L99.2813 47.8436C99.2441 47.8221 99.2239 47.7974 99.2202 47.7694C99.2166 47.741 99.2312 47.7179 99.2634 47.6994L99.5544 47.5324L99.6152 47.5199L99.6799 47.5374L100.353 47.9231L100.383 47.9601L100.362 47.995L100.301 48.0073L100.237 47.9894L99.665 47.6615L99.6328 47.6532L99.6015 47.6598L99.4268 47.7601Z" fill="#DADBD8"/>
<path d="M100.124 48.5942C100.092 48.6127 100.078 48.6358 100.081 48.6642C100.085 48.6922 100.105 48.717 100.142 48.7381L100.411 48.8922C100.449 48.914 100.493 48.9259 100.542 48.9282C100.591 48.9301 100.631 48.9216 100.664 48.9031L100.78 48.8364C100.812 48.818 100.826 48.7949 100.823 48.7668C100.819 48.7388 100.799 48.7137 100.761 48.6919L100.492 48.5375C100.455 48.5167 100.412 48.5048 100.363 48.5028C100.314 48.5009 100.273 48.5091 100.241 48.5276L100.124 48.5942ZM100.608 48.4708L100.877 48.6249C100.952 48.6681 100.993 48.718 101 48.7737C101.007 48.8302 100.979 48.877 100.915 48.914L100.798 48.9806C100.734 49.0176 100.652 49.0337 100.554 49.0298C100.457 49.0258 100.37 49.0021 100.295 48.9592L100.026 48.8047C99.9517 48.7622 99.9108 48.7127 99.9039 48.6566C99.8969 48.6002 99.9255 48.5537 99.9899 48.517L100.456 48.2498C100.52 48.2128 100.601 48.1963 100.699 48.2003C100.797 48.2046 100.883 48.2277 100.958 48.2702L101.227 48.4246C101.302 48.4675 101.343 48.5174 101.35 48.5735C101.357 48.6296 101.329 48.6764 101.264 48.7134L101.203 48.7256L101.138 48.7077L101.108 48.6711L101.129 48.6358C101.161 48.6177 101.176 48.5946 101.172 48.5662C101.169 48.5381 101.148 48.5131 101.11 48.4913L100.841 48.3372C100.804 48.3161 100.761 48.3042 100.712 48.3022C100.663 48.3002 100.623 48.3085 100.59 48.327L100.442 48.4121C100.505 48.4237 100.561 48.4435 100.608 48.4708Z" fill="#DADBD8"/>
<path d="M102.16 49.3941L101.362 49.5046L101.352 49.5059L101.337 49.5076L101.322 49.5095L101.304 49.5112L101.287 49.5109L101.269 49.5092L101.252 49.5056L101.236 49.4993L101.202 49.464L101.227 49.4274C101.24 49.4205 101.27 49.4158 101.319 49.4132C101.576 49.3776 101.822 49.3413 102.059 49.304L102.13 49.2855L102.185 49.2627L102.205 49.2528C102.237 49.2344 102.251 49.2109 102.247 49.1829C102.244 49.1548 102.224 49.1301 102.187 49.109L102.052 49.0318L101.985 48.9932L101.716 48.8387L101.685 48.8018L101.706 48.7671L101.767 48.7543L101.832 48.7721L102.101 48.9262L102.168 48.9648L102.303 49.042C102.377 49.0846 102.418 49.1341 102.425 49.1902C102.432 49.2462 102.403 49.2931 102.339 49.3301C102.315 49.3439 102.283 49.3571 102.245 49.37C102.208 49.3832 102.179 49.3914 102.16 49.3941Z" fill="#DADBD8"/>
<path d="M102.873 50.1035C102.905 50.085 102.919 50.0619 102.916 50.0338C102.912 50.0058 102.892 49.981 102.855 49.9596L102.586 49.8052C102.549 49.7844 102.505 49.7725 102.456 49.7705C102.407 49.7685 102.367 49.7768 102.335 49.7953L102.277 49.8286C102.244 49.8471 102.23 49.8702 102.233 49.8982C102.237 49.9266 102.257 49.9513 102.294 49.9725L102.563 50.1265C102.6 50.148 102.644 50.1599 102.693 50.1619C102.742 50.1638 102.782 50.1553 102.814 50.1371L102.873 50.1035ZM103.28 49.8698C103.313 49.8514 103.327 49.8283 103.323 49.7999C103.32 49.7718 103.299 49.7471 103.262 49.7257L102.993 49.5716C102.956 49.5505 102.913 49.5386 102.864 49.5366C102.815 49.5346 102.775 49.5429 102.743 49.5613L102.684 49.5947C102.652 49.6131 102.638 49.6366 102.641 49.6646C102.645 49.6927 102.665 49.7174 102.702 49.7385L102.971 49.8926C103.008 49.9141 103.052 49.9259 103.1 49.9279C103.15 49.9299 103.19 49.9216 103.222 49.9032L103.28 49.8698ZM103.007 50.181L102.949 50.2143C102.885 50.2513 102.803 50.2674 102.705 50.2635C102.607 50.2595 102.521 50.2364 102.447 50.1935L102.178 50.0391C102.104 49.9965 102.063 49.9471 102.056 49.891C102.049 49.8345 102.078 49.788 102.142 49.7511L102.2 49.7177C102.234 49.6983 102.274 49.6844 102.321 49.6765C102.367 49.6682 102.415 49.6659 102.466 49.6702L102.477 49.5867C102.492 49.56 102.515 49.5369 102.55 49.5175L102.608 49.4841C102.672 49.4472 102.753 49.4307 102.851 49.4346C102.949 49.4386 103.036 49.462 103.11 49.5046L103.379 49.659C103.453 49.7019 103.494 49.7514 103.501 49.8072C103.508 49.8636 103.479 49.9101 103.415 49.9471L103.357 49.9804C103.323 50.0002 103.282 50.0137 103.236 50.0216C103.189 50.0295 103.141 50.0319 103.09 50.0279L103.079 50.1114C103.065 50.1381 103.041 50.1615 103.007 50.181Z" fill="#DADBD8"/>
<path d="M105.434 51.1049C105.466 51.0864 105.48 51.063 105.477 51.0349C105.473 51.0069 105.452 50.9818 105.414 50.96L105.145 50.8059C105.109 50.7848 105.065 50.773 105.016 50.771C104.967 50.769 104.927 50.7772 104.895 50.7957L104.778 50.8627C104.746 50.8812 104.732 50.9043 104.735 50.9323C104.739 50.9604 104.759 50.9851 104.796 51.0062L105.065 51.1607C105.102 51.1818 105.145 51.1937 105.195 51.196C105.244 51.1979 105.285 51.1904 105.317 51.1719L105.434 51.1049ZM104.599 51.4279L104.33 51.2735C104.256 51.2309 104.215 51.1814 104.208 51.1253C104.201 51.0689 104.23 51.0224 104.294 50.9854L104.355 50.9736L104.42 50.9911L104.45 51.0283L104.429 51.063C104.396 51.0815 104.382 51.1046 104.385 51.1326C104.389 51.161 104.41 51.1857 104.447 51.2068L104.716 51.3609C104.753 51.3824 104.796 51.3939 104.845 51.3966C104.895 51.3985 104.936 51.3906 104.968 51.3722L105.116 51.287C105.053 51.2751 104.997 51.2554 104.948 51.2273L104.679 51.0732C104.605 51.0303 104.564 50.9812 104.557 50.9247C104.551 50.8686 104.579 50.8221 104.644 50.7852L104.76 50.7185C104.824 50.6816 104.906 50.6651 105.004 50.669C105.102 50.673 105.188 50.6964 105.262 50.739L105.531 50.8934C105.606 50.9363 105.647 50.9861 105.654 51.0422C105.661 51.0983 105.633 51.1451 105.568 51.1821L105.102 51.4494C105.038 51.4863 104.957 51.5025 104.858 51.4982C104.761 51.4946 104.674 51.4708 104.599 51.4279Z" fill="#DADBD8"/>
<path d="M105.607 52.006L105.204 51.7747L105.173 51.7377L105.195 51.7028L105.256 51.6906L105.32 51.7077L105.455 51.7849L106.037 51.451C106.07 51.4325 106.084 51.4094 106.08 51.3817C106.077 51.354 106.057 51.3293 106.021 51.3081L106.019 51.3068L105.988 51.2699L106.01 51.2352L106.071 51.2223L106.136 51.2402C106.21 51.2827 106.251 51.3322 106.258 51.3883C106.265 51.4447 106.236 51.4913 106.172 51.5282L105.59 51.8621L105.724 51.9393L105.754 51.9763L105.732 52.0116L105.672 52.0235L105.607 52.006Z" fill="#DADBD8"/>
<path d="M107.298 52.0403L107.029 51.8862C107.007 51.8734 106.981 51.8638 106.951 51.8578L106.86 52.4458L107.317 52.1845C107.348 52.166 107.363 52.1426 107.359 52.1146C107.356 52.0862 107.335 52.0618 107.298 52.0403ZM106.33 52.2871L106.599 52.4412C106.621 52.4538 106.647 52.4633 106.678 52.4696L106.768 51.8816L106.312 52.1429C106.28 52.1614 106.266 52.1845 106.269 52.2129C106.273 52.2409 106.293 52.2657 106.33 52.2871ZM106.483 52.5082L106.214 52.3538C106.14 52.3112 106.099 52.2617 106.092 52.2056C106.085 52.1492 106.113 52.1027 106.178 52.0661L106.644 51.7988C106.708 51.7618 106.789 51.7453 106.887 51.7493C106.985 51.7536 107.072 51.7767 107.146 51.8192L107.415 51.9737C107.489 52.0162 107.53 52.0657 107.537 52.1218C107.544 52.1779 107.515 52.2248 107.451 52.2614L106.985 52.5287C106.921 52.5656 106.839 52.5818 106.741 52.5781C106.643 52.5739 106.557 52.5508 106.483 52.5082Z" fill="#DADBD8"/>
<path d="M107.49 53.0863L107.087 52.8543L107.057 52.818L107.078 52.783L107.139 52.7708L107.203 52.7877L107.338 52.8649L107.92 52.5306C107.952 52.5121 107.967 52.4894 107.963 52.4617C107.96 52.4339 107.94 52.4092 107.904 52.3881L107.902 52.3868L107.871 52.3498L107.893 52.3152L107.954 52.3026L108.019 52.3198C108.093 52.3627 108.134 52.4122 108.141 52.4682C108.148 52.5247 108.119 52.5712 108.055 52.6082L107.473 52.9421L107.607 53.0193L107.638 53.0566L107.615 53.0912L107.555 53.1037L107.49 53.0863Z" fill="#DADBD8"/>
<path d="M109.374 54.1662L108.97 53.9346L108.94 53.898L108.961 53.863L109.022 53.8508L109.087 53.8679L109.221 53.9451L109.804 53.6109C109.836 53.5924 109.85 53.5693 109.847 53.5416C109.843 53.5139 109.824 53.4895 109.788 53.4684L109.786 53.467L109.755 53.4298L109.776 53.3954L109.837 53.3826L109.902 53.4004C109.977 53.443 110.017 53.4921 110.024 53.5485C110.031 53.6046 110.003 53.6512 109.938 53.6881L109.356 54.0224L109.49 54.0992L109.521 54.1365L109.499 54.1715L109.438 54.1837L109.374 54.1662Z" fill="#DADBD8"/>
<path d="M110.599 54.4678L110.33 54.3134C110.292 54.2923 110.249 54.2804 110.2 54.2784C110.151 54.2764 110.111 54.2847 110.078 54.3031L109.991 54.3533L109.98 54.3705L109.996 54.3893L110.568 54.7176L110.598 54.7549L110.577 54.7898L110.516 54.802L110.452 54.7846L109.778 54.3982L109.748 54.3615L109.769 54.3262L109.944 54.2259C110.008 54.189 110.089 54.1728 110.187 54.1768C110.286 54.1807 110.372 54.2042 110.446 54.2467L110.715 54.4008C110.752 54.4223 110.796 54.4341 110.845 54.4361C110.894 54.4384 110.935 54.4305 110.967 54.412L111.084 54.345C111.116 54.3266 111.13 54.3031 111.126 54.2751C111.123 54.247 111.102 54.2223 111.065 54.2005L110.796 54.0461C110.758 54.025 110.715 54.0131 110.666 54.0111C110.617 54.0091 110.577 54.0174 110.544 54.0359L110.483 54.0484L110.42 54.0309L110.388 53.994L110.41 53.9587C110.474 53.9217 110.555 53.9055 110.653 53.9095C110.751 53.9135 110.838 53.9369 110.912 53.9795L111.181 54.1339C111.256 54.1768 111.297 54.2263 111.304 54.2827C111.311 54.3388 111.282 54.3853 111.218 54.4223L111.101 54.4889C111.037 54.5259 110.956 54.5424 110.858 54.5384C110.76 54.5341 110.673 54.5107 110.599 54.4678Z" fill="#DADBD8"/>
<path d="M111.257 55.2462L110.854 55.0149L110.823 54.9779L110.844 54.9429L110.906 54.9307L110.97 54.9479L111.105 55.0251L111.687 54.6912C111.719 54.6727 111.734 54.6496 111.73 54.6219C111.727 54.5942 111.707 54.5694 111.671 54.5483L111.669 54.547L111.638 54.51L111.66 54.4754L111.72 54.4625L111.786 54.4803C111.86 54.5229 111.9 54.5724 111.908 54.6285C111.915 54.6849 111.886 54.7314 111.822 54.7681L111.239 55.1023L111.374 55.1795L111.404 55.2165L111.382 55.2518L111.321 55.2636L111.257 55.2462Z" fill="#DADBD8"/>
<path d="M112.693 55.7355L112.634 55.7688C112.57 55.8058 112.489 55.8219 112.391 55.8183C112.293 55.814 112.207 55.7909 112.132 55.7484L111.863 55.5939C111.789 55.5514 111.748 55.5019 111.741 55.4458C111.734 55.3897 111.763 55.3428 111.827 55.3062L111.887 55.2937L111.952 55.3108L111.983 55.3481L111.962 55.3831C111.93 55.4016 111.915 55.4247 111.919 55.453C111.922 55.4811 111.943 55.5058 111.98 55.5273L112.249 55.6814C112.286 55.7028 112.329 55.7144 112.378 55.7164C112.427 55.7183 112.468 55.7104 112.5 55.6919L112.558 55.6583C112.59 55.6398 112.604 55.6167 112.601 55.5883C112.597 55.5603 112.577 55.5359 112.54 55.5144L112.473 55.4758L112.442 55.4385L112.463 55.4042L112.524 55.3913L112.589 55.4092L112.656 55.4478C112.694 55.4689 112.737 55.4804 112.786 55.4824C112.835 55.4844 112.875 55.4765 112.907 55.458L112.966 55.4247C112.998 55.4062 113.012 55.3828 113.008 55.3547C113.005 55.3263 112.985 55.3019 112.948 55.2805L112.679 55.1264C112.641 55.1049 112.599 55.0931 112.549 55.0911C112.5 55.0891 112.46 55.0977 112.428 55.1158L112.366 55.1284L112.302 55.1102L112.271 55.0736L112.293 55.039C112.357 55.002 112.439 54.9855 112.537 54.9895C112.635 54.9937 112.721 55.0168 112.795 55.0594L113.064 55.2138C113.138 55.2564 113.179 55.3059 113.186 55.362C113.193 55.4181 113.165 55.4649 113.1 55.5016L113.042 55.5352C113.008 55.5547 112.968 55.5682 112.921 55.5761C112.874 55.584 112.826 55.5863 112.776 55.583L112.764 55.6659C112.75 55.6929 112.726 55.716 112.693 55.7355Z" fill="#DADBD8"/>
<path d="M106.315 54.9545L106.08 54.8192L106.062 54.7977L106.074 54.7773L106.11 54.7703L106.148 54.7802L106.226 54.8251L106.567 54.6301L106.591 54.5899L106.557 54.547L106.556 54.546L106.538 54.5245L106.55 54.5044L106.586 54.4968L106.624 54.507C106.667 54.5321 106.691 54.5608 106.695 54.5938C106.699 54.6265 106.682 54.6535 106.645 54.6753L106.305 54.8703L106.384 54.9155L106.401 54.937L106.389 54.9574L106.353 54.9647L106.315 54.9545Z" fill="#DADBD8"/>
<path d="M107.031 55.1304L106.873 55.0403L106.798 55.0198L106.727 55.0343L106.676 55.0637L106.67 55.0739L106.679 55.0845L107.013 55.2765L107.031 55.298L107.018 55.3188L106.982 55.3257L106.945 55.3155L106.552 55.0898L106.534 55.0683L106.546 55.0479L106.648 54.9895C106.686 54.968 106.733 54.9581 106.79 54.9604C106.848 54.9631 106.898 54.9766 106.942 55.0013L107.099 55.0914L107.174 55.1122L107.246 55.098L107.314 55.0591L107.339 55.0182L107.303 54.9743L107.146 54.8842L107.07 54.8641L106.999 54.8783L106.964 54.8855L106.926 54.8756L106.908 54.8538L106.921 54.8334C106.958 54.8119 107.005 54.802 107.063 54.8044C107.12 54.807 107.17 54.8205 107.214 54.8453L107.371 54.9353C107.414 54.9604 107.439 54.9895 107.442 55.0225C107.446 55.0551 107.43 55.0825 107.392 55.104L107.324 55.1429C107.287 55.1643 107.239 55.1739 107.182 55.1716C107.125 55.1693 107.074 55.1554 107.031 55.1304Z" fill="#DADBD8"/>
<path d="M107.973 55.6711L107.816 55.5811L107.741 55.5606L107.67 55.5748L107.619 55.6042L107.612 55.6144L107.621 55.6253L107.956 55.817L107.973 55.8388L107.961 55.8592L107.925 55.8661L107.888 55.8559L107.494 55.6302L107.477 55.6088L107.489 55.5883L107.591 55.5299C107.629 55.5085 107.676 55.4989 107.733 55.5012C107.79 55.5035 107.841 55.517 107.884 55.5418L108.041 55.6322L108.117 55.6527L108.188 55.6385L108.256 55.5995L108.282 55.5586L108.246 55.5151L108.088 55.425L108.013 55.4045L107.942 55.4187L107.906 55.4263L107.869 55.4161L107.851 55.3943L107.863 55.3738C107.901 55.3524 107.948 55.3428 108.005 55.3451C108.063 55.3475 108.113 55.361 108.156 55.3857L108.313 55.4761C108.357 55.5012 108.381 55.5299 108.385 55.5629C108.389 55.5956 108.373 55.623 108.335 55.6444L108.267 55.6833C108.23 55.7051 108.182 55.7147 108.125 55.7124C108.067 55.7097 108.017 55.6962 107.973 55.6711Z" fill="#DADBD8"/>
<path d="M108.725 56.141L108.691 56.1605C108.653 56.1819 108.605 56.1915 108.548 56.1892C108.491 56.1869 108.441 56.1733 108.398 56.1483L108.24 56.0582C108.197 56.0334 108.173 56.0044 108.169 55.9717C108.165 55.9387 108.182 55.9117 108.219 55.8902L108.255 55.883L108.292 55.8929L108.31 55.915L108.298 55.9354L108.273 55.976L108.308 56.0193L108.465 56.1093L108.541 56.1298L108.612 56.1153L108.646 56.0958L108.671 56.0552L108.635 56.012L108.596 55.9896L108.578 55.9678L108.591 55.9473L108.626 55.9401L108.664 55.9503L108.703 55.9727L108.779 55.9932L108.85 55.979L108.884 55.9592L108.909 55.9186L108.874 55.8754L108.716 55.7853L108.641 55.7649L108.57 55.7794L108.534 55.7863L108.496 55.7761L108.479 55.7546L108.491 55.7342C108.529 55.7127 108.576 55.7032 108.633 55.7055C108.691 55.7078 108.741 55.7213 108.785 55.7464L108.942 55.8365C108.985 55.8612 109.009 55.8902 109.013 55.9229C109.017 55.9556 109 55.983 108.963 56.0044L108.929 56.0239L108.858 56.048L108.773 56.0519L108.767 56.1004L108.725 56.141Z" fill="#DADBD8"/>
<path d="M107.083 55.489L107.081 55.486L107.095 55.4521L107.778 55.1703L107.812 55.1845L107.798 55.2184L107.115 55.5002L107.083 55.489Z" fill="#DADBD8"/>
<path d="M98.1115 43.1252L97.0153 42.5016L95.9893 43.0906L97.0851 43.7142L98.1115 43.1252ZM98.7639 45.3831L99.2465 45.105L95.8501 43.1711L95.3585 43.4506C95.1891 43.5486 95.1891 43.7083 95.3585 43.8062L98.146 45.3831C98.3158 45.4808 98.5941 45.4808 98.7639 45.3831ZM98.2942 44.4025L99.39 45.0245L100.412 44.4368L99.3202 43.8135L98.2942 44.4025ZM98.2507 43.2044L97.2243 43.7934L98.155 44.3216L99.1767 43.7343L98.2507 43.2044ZM101.047 44.0738C101.217 43.9762 101.217 43.8162 101.047 43.7185C100.29 43.2849 99.016 42.5749 98.2593 42.1416C98.0896 42.0436 97.8112 42.0436 97.6418 42.1416L97.1545 42.4211L100.556 44.3563L101.047 44.0738Z" fill="#DB6C1D"/>
<path d="M98.4549 45.4564C98.3429 45.4564 98.231 45.4319 98.146 45.3831L95.3584 43.8063C95.3282 43.7888 95.3033 43.769 95.2837 43.7482C95.4465 43.7541 95.6105 43.7577 95.774 43.7577C96.1144 43.7577 96.4536 43.7422 96.7791 43.7003L99.2464 45.105L98.7638 45.3831C98.6788 45.4319 98.5668 45.4564 98.4549 45.4564ZM99.3899 45.0245L98.2941 44.4025L99.3202 43.8135L100.412 44.4368L99.3899 45.0245ZM100.555 44.3563L98.5847 43.2348C98.9109 43.1246 99.2338 43.0035 99.5523 42.8735C100.093 43.1777 100.644 43.4872 101.047 43.7185C101.131 43.7673 101.174 43.8317 101.174 43.8963C101.174 43.9607 101.131 44.025 101.047 44.0738L100.555 44.3563ZM98.1549 44.3216L97.2242 43.7934L97.7547 43.4888C97.9736 43.4288 98.1908 43.3635 98.4067 43.2935L99.1767 43.7343L98.1549 44.3216ZM97.085 43.7142L97.002 43.6667C97.088 43.6518 97.1727 43.635 97.2564 43.6159L97.085 43.7142Z" fill="#F19212"/>
<path d="M114.493 52.4762L103.584 46.2196C103.394 46.1107 103.087 46.1107 102.897 46.2196L102.849 46.2469C102.66 46.3558 102.66 46.532 102.849 46.6409L113.759 52.8975C113.948 53.0061 114.256 53.0061 114.445 52.8975L114.493 52.8701C114.683 52.7613 114.683 52.5851 114.493 52.4762Z" fill="#DB6C1D"/>
<path d="M114.102 52.979C113.978 52.979 113.854 52.952 113.759 52.8975L102.849 46.6409C102.754 46.5865 102.707 46.5152 102.707 46.4439C102.707 46.3727 102.754 46.3014 102.849 46.2469L102.897 46.2195C102.992 46.1651 103.116 46.1381 103.24 46.1381C103.364 46.1381 103.489 46.1651 103.584 46.2195L114.493 52.4762C114.588 52.5306 114.635 52.6019 114.635 52.6732C114.635 52.7444 114.588 52.8157 114.493 52.8701L114.445 52.8975C114.35 52.952 114.226 52.979 114.102 52.979Z" fill="#D96D1F"/>
<path d="M102.017 40.543L102.081 40.5321L102.134 40.547L102.306 40.6456L102.331 40.6786L102.306 40.7113C102.243 40.7423 102.171 40.7674 102.088 40.7865C102.005 40.8053 101.915 40.8136 101.817 40.8113C101.719 40.8089 101.617 40.7938 101.509 40.7664C101.401 40.7387 101.292 40.6931 101.182 40.6298C101.084 40.5737 101.012 40.5156 100.966 40.4562C100.92 40.3962 100.897 40.3368 100.896 40.2767C100.895 40.2173 100.916 40.1583 100.96 40.0999C101.002 40.0418 101.064 39.987 101.143 39.9349C101.194 39.9026 101.252 39.8676 101.317 39.83C101.382 39.7927 101.444 39.7594 101.5 39.73C101.591 39.6848 101.687 39.6495 101.788 39.6247C101.89 39.5996 101.993 39.5878 102.097 39.5881C102.201 39.5884 102.305 39.6016 102.41 39.6284C102.513 39.6548 102.614 39.696 102.712 39.7521C102.822 39.8154 102.902 39.8778 102.95 39.9398C102.998 40.0015 103.024 40.0606 103.029 40.1164C103.033 40.1728 103.018 40.2246 102.984 40.2728C102.95 40.3206 102.907 40.3622 102.855 40.3972L102.797 40.4117L102.74 40.3972L102.568 40.2982L102.541 40.2671L102.559 40.2299L102.612 40.1652L102.621 40.087C102.615 40.0596 102.598 40.0302 102.571 39.9989C102.543 39.9676 102.501 39.9362 102.446 39.9045C102.391 39.8728 102.334 39.8501 102.276 39.8362C102.219 39.8224 102.161 39.8158 102.105 39.8161C102.049 39.8164 101.994 39.8237 101.939 39.8379C101.885 39.8521 101.834 39.8709 101.787 39.8946C101.731 39.924 101.669 39.9573 101.605 39.9946C101.539 40.0319 101.481 40.0669 101.43 40.0995C101.387 40.1273 101.355 40.1563 101.33 40.1873C101.306 40.218 101.294 40.2497 101.293 40.2817C101.292 40.3137 101.304 40.3467 101.328 40.3797C101.352 40.4133 101.392 40.4457 101.447 40.4773C101.502 40.509 101.558 40.5328 101.612 40.5486C101.666 40.5644 101.718 40.5743 101.767 40.578C101.816 40.5816 101.862 40.5803 101.904 40.5737C101.947 40.5674 101.984 40.5569 102.017 40.543Z" fill="#FAFAF9"/>
<path d="M98.6573 39.5544L96.2939 38.2072C96.5261 38.03 96.7573 37.8519 96.9882 37.673L99.4668 39.0899L98.6573 39.5544ZM99.9544 38.8101L97.4021 37.3507C97.6768 37.1359 97.9508 36.9204 98.2242 36.704L100.93 38.2508L99.9544 38.8101Z" fill="#F19212"/>
<path d="M99.4664 39.0899L96.9878 37.673C97.126 37.5658 97.2638 37.4586 97.4017 37.3507L99.954 38.8101L99.4664 39.0899Z" fill="#DB6C1D"/>
<path d="M92.7792 42.9253C92.6906 42.6135 92.4335 42.3211 92.0442 42.0984C91.9189 42.0268 91.7844 41.9648 91.6426 41.9117C91.7276 41.6342 91.9492 41.3996 92.1684 41.197C93.2214 40.2239 94.5055 39.5545 95.6488 38.6959C95.8647 38.5339 96.0796 38.3709 96.2939 38.2072L98.6573 39.5545L92.7792 42.9253Z" fill="#F19212"/>
<path d="M92.3657 43.1625C92.1916 43.0685 92.0279 42.9569 91.8934 42.8134C91.8518 42.7692 91.8133 42.7214 91.7791 42.6709C91.6648 42.5026 91.5951 42.3046 91.6074 42.1037C91.6113 42.0374 91.6233 41.9737 91.6426 41.9116C91.7844 41.9648 91.9189 42.0268 92.0442 42.0984C92.4335 42.3211 92.6905 42.6135 92.7792 42.9253L92.3657 43.1625Z" fill="#F19212"/>
<path d="M95.2838 43.7482C94.9191 43.735 94.5597 43.7102 94.2199 43.6871C93.6678 43.6502 93.1433 43.5202 92.6371 43.2948L97.5897 40.4546L100.809 42.3007C100.547 42.433 100.282 42.5587 100.013 42.6775C99.8604 42.7448 99.7069 42.8101 99.5525 42.8735C99.0788 42.6065 98.6128 42.3439 98.2593 42.1416C98.1746 42.0925 98.0624 42.068 97.9504 42.068C97.8385 42.068 97.7265 42.0925 97.6418 42.1416L97.1545 42.4211L98.5849 43.2348C98.5254 43.2546 98.4663 43.2744 98.4068 43.2935L98.2507 43.2044L97.7548 43.4888C97.5973 43.5321 97.4389 43.5726 97.2801 43.6102C97.2721 43.6119 97.2642 43.6139 97.2565 43.6159L98.1115 43.1252L97.0154 42.5016L95.9893 43.0906L97.0021 43.6667C96.9287 43.6795 96.8543 43.6904 96.7792 43.7003L95.8501 43.1711L95.3585 43.4506C95.2738 43.4994 95.2313 43.5637 95.2313 43.6284C95.2313 43.6696 95.2489 43.7109 95.2838 43.7482ZM92.3657 43.1625L92.7793 42.9253L98.6573 39.5544L99.4668 39.0899L99.9544 38.8101L100.93 38.2508L92.3657 43.1625Z" fill="#DBDCD9"/>
<path d="M92.6371 43.2948C92.6059 43.281 92.575 43.2668 92.5441 43.2523C92.484 43.2239 92.4242 43.1942 92.3657 43.1625L100.93 38.2508L100.931 38.2515L101.313 38.0324L97.3409 40.3117L97.5897 40.4546L92.6371 43.2948Z" fill="#CCCDCB"/>
<path d="M95.7737 43.7578C95.6103 43.7578 95.4462 43.7541 95.2834 43.7482C95.2486 43.7109 95.231 43.6697 95.231 43.6284C95.231 43.5637 95.2735 43.4994 95.3582 43.4506L95.8498 43.1711L96.7789 43.7003C96.4533 43.7422 96.1142 43.7578 95.7737 43.7578ZM97.0017 43.6667L95.989 43.0906L97.015 42.5016L98.1112 43.1252L97.2562 43.6159C97.1725 43.635 97.0878 43.6518 97.0017 43.6667ZM97.7544 43.4888L98.2503 43.2044L98.4065 43.2935C98.1906 43.3635 97.9733 43.4288 97.7544 43.4888ZM98.5845 43.2348L97.1542 42.4211L97.6415 42.1416C97.7262 42.0925 97.8381 42.068 97.9501 42.068C98.062 42.068 98.1743 42.0925 98.259 42.1416C98.6124 42.3439 99.0784 42.6065 99.5521 42.8735C99.2336 43.0035 98.9107 43.1246 98.5845 43.2348Z" fill="#F19212"/>
<path d="M103.222 40.837L103.19 40.8188L103.458 40.6651C103.38 40.7228 103.301 40.7802 103.222 40.837Z" fill="#DB6C1D"/>
<path d="M102.372 41.2686L102.315 41.255L102.143 41.1564L102.119 41.1237L102.143 41.0904L103.516 40.3031L103.573 40.2896L103.631 40.3031L103.805 40.4028C103.69 40.4915 103.575 40.579 103.458 40.6651L103.191 40.8188L103.222 40.837C103.143 40.8934 103.064 40.9495 102.984 41.0049L102.925 40.9709L102.43 41.255L102.372 41.2686Z" fill="#DBDCD9"/>
<path d="M101.078 31.7315C99.7651 32.5841 96.1867 36.957 93.7526 38.7754C91.3188 40.5905 91.0707 42.0562 93.1666 42.4534C95.2593 42.854 98.3411 42.7514 100.916 40.8472C103.488 38.9434 104.309 38.2792 105.191 38.3405L101.078 31.7315Z" fill="#FFBE9D"/>
<path d="M34.3099 76.7692C33.3499 77.079 29.5355 77.8032 29.3797 76.2445C29.3338 75.7852 29.5756 75.3513 29.8127 74.9544C31.1215 72.7622 32.6649 70.5162 35.0171 69.4979C37.4575 68.4417 40.3918 68.1916 42.997 67.735C45.9423 67.2189 48.8893 66.6567 51.7469 65.7668C52.0684 65.6668 52.4102 65.5612 52.7364 65.646C53.4001 65.8186 53.6213 66.6494 53.5917 67.3301C53.5067 69.2957 52.3322 71.0916 50.8142 72.355C49.997 73.0354 49.074 73.59 48.0881 73.9936C46.8398 74.5047 45.6045 74.634 44.3074 74.861C42.9 75.1075 41.5331 75.5526 40.1052 75.7661C39.6405 75.8354 34.3099 76.5342 34.3099 76.7692Z" fill="#EB996E"/>
<path d="M70.5375 59.4363C69.8546 47.319 64.6662 36.8742 64.6662 36.8742L64.4532 38.3419L61.8956 37.9756L61.683 39.4432L59.122 39.0767L58.9091 40.544L56.3514 40.1781L56.1385 41.6454L53.5808 41.2795L53.3679 42.7468L50.8102 42.3805L50.8066 42.3835L50.5943 43.8475L48.0396 43.4819L48.0363 43.4845L47.8237 44.9489L45.269 44.5833L45.2624 44.5856L45.0498 46.05L42.4988 45.6847L42.4918 45.687L42.2795 47.1513L39.7212 46.7884C39.7212 46.7884 45.284 55.7642 45.5075 69.3828C45.6653 78.9997 41.9706 94.2967 41.9706 94.2967L43.5693 92.2797L44.7429 93.1954L46.3413 91.1783L47.5121 92.0953L49.1132 90.0773L50.2847 90.9939L51.8851 88.9759L53.0576 89.8925L53.059 89.8918L54.657 87.8745L55.8302 88.7911L57.4289 86.7731L58.6015 87.6901L58.6025 87.6897L60.2005 85.672L61.3734 86.589L62.9724 84.5706L64.146 85.4876L65.7444 83.4693L66.9182 84.3862C66.9182 84.3862 71.3683 74.179 70.5375 59.4363Z" fill="#DADBD8"/>
<path d="M60.4948 58.257C53.4024 44.8625 44.6409 39.4607 44.6409 39.4607L45.0216 40.9172L42.4423 41.0765L42.823 42.533L40.2407 42.6923L40.6214 44.1488L38.0421 44.3078L38.4228 45.7642L35.8438 45.9236L36.2245 47.38L33.6452 47.5394L33.6429 47.5427L34.0226 48.9958L31.4469 49.1549L31.4444 49.1582L31.8243 50.6116L29.2482 50.7706L29.2427 50.7739L29.6225 52.2274L27.0498 52.3861L27.0442 52.3897L27.4241 53.8429L24.8457 54.0052C24.8457 54.0052 33.9711 60.3931 41.3398 73.4891C47.3892 84.2404 48.4598 97.6261 48.4598 97.6261L49.1796 95.3629L50.6597 96.0099L51.3792 93.7467L52.858 94.3957L53.5791 92.1309L55.0579 92.78L55.7787 90.5151L57.2589 91.1635L57.2599 91.1625L57.9787 88.8993L59.4591 89.5474L60.1783 87.2836L61.6587 87.9319L62.3782 85.6674L63.8583 86.3165L64.5778 84.0516L66.0586 84.7003L66.7777 82.4358L68.2589 83.0842C68.2589 83.0842 68.2353 72.875 60.4948 58.257Z" fill="#777B81"/>
<path d="M37.884 56.1776C37.8498 56.2057 37.809 56.2189 37.7605 56.2166C37.7123 56.2142 37.6718 56.1977 37.6396 56.1661L34.7969 53.4034C34.764 53.372 34.7491 53.3347 34.75 53.2912C34.7517 53.2483 34.7693 53.212 34.8035 53.1839L35.1815 52.8715C35.2157 52.8431 35.2573 52.8302 35.3054 52.8322C35.3539 52.8345 35.3941 52.8513 35.4267 52.883L38.2693 55.6457C38.3019 55.6771 38.3172 55.714 38.3158 55.7579C38.3142 55.8008 38.2962 55.8368 38.262 55.8652L37.884 56.1776Z" fill="#DB6C1D"/>
<path d="M40.7364 52.8315C40.7706 52.8035 40.8118 52.7906 40.8599 52.7926C40.9084 52.7946 40.9486 52.8117 40.9812 52.8431L41.2934 53.1467C41.3256 53.178 41.3413 53.215 41.3396 53.2588C41.3386 53.3021 41.3203 53.338 41.2861 53.3661L39.2423 55.0554C39.2078 55.0838 39.1666 55.0967 39.1184 55.0947C39.0702 55.0921 39.0297 55.0756 38.9975 55.0439L36.1545 52.2812C36.1219 52.2498 36.1067 52.2126 36.108 52.169C36.1097 52.1261 36.1273 52.0901 36.1618 52.0618L36.5398 51.7493C36.574 51.7209 36.6152 51.708 36.6634 51.71C36.7119 51.7123 36.7521 51.7292 36.7846 51.7608L39.1961 54.1045L40.7364 52.8315Z" fill="#DB6C1D"/>
<path d="M43.481 50.5641C43.5152 50.5357 43.5561 50.5228 43.6042 50.5248C43.6527 50.5271 43.6933 50.544 43.7255 50.5756L44.0377 50.8792C44.0703 50.9105 44.0859 50.9475 44.0842 50.9914C44.0829 51.0343 44.0646 51.0702 44.0304 51.0986L41.9863 52.7877C41.9524 52.816 41.9112 52.8289 41.8627 52.8269C41.8145 52.8246 41.774 52.8078 41.7418 52.7764L38.8991 50.0137C38.8666 49.9824 38.8513 49.9448 38.8526 49.9015C38.8539 49.8583 38.8719 49.8223 38.9061 49.794L39.2841 49.4818C39.3183 49.4534 39.3598 49.4406 39.408 49.4422C39.4565 49.4449 39.4964 49.4614 39.5292 49.493L41.9408 51.8367L43.481 50.5641Z" fill="#DB6C1D"/>
<path d="M36.0261 62.1475C35.9331 62.1475 35.8408 62.1073 35.778 62.0297C35.6677 61.8941 35.6893 61.6948 35.8258 61.5853L47.1553 52.5082C47.2918 52.398 47.4928 52.4201 47.6027 52.5557C47.713 52.6916 47.6918 52.8906 47.5549 53.0002L36.2257 62.0772C36.1669 62.1248 36.0962 62.1475 36.0261 62.1475Z" fill="white"/>
<path d="M38.2238 64.3579C38.1308 64.3579 38.0388 64.3176 37.976 64.2401C37.8654 64.1045 37.887 63.9052 38.0238 63.7956L49.353 54.7186C49.4898 54.6083 49.6905 54.6305 49.8004 54.7661C49.9107 54.902 49.8894 55.101 49.7526 55.2105L38.4234 64.2876C38.3646 64.3348 38.2939 64.3579 38.2238 64.3579Z" fill="white"/>
<path d="M40.1696 66.7956C40.0766 66.7956 39.9846 66.7553 39.9218 66.6778C39.8112 66.5422 39.8328 66.3429 39.9696 66.2333L51.2988 57.1563C51.4356 57.0461 51.6363 57.0682 51.7462 57.2038C51.8565 57.3397 51.8352 57.5387 51.6984 57.6482L40.3692 66.7253C40.3104 66.7728 40.2397 66.7956 40.1696 66.7956Z" fill="white"/>
<path d="M41.8735 69.4508C41.7809 69.4508 41.6885 69.4108 41.6257 69.3333C41.5155 69.1974 41.5367 68.9984 41.6736 68.8885L53.0027 59.8114C53.1396 59.7016 53.3402 59.7233 53.4502 59.8593C53.5604 59.9949 53.5392 60.1942 53.4023 60.3037L42.0732 69.3808C42.0144 69.428 41.9436 69.4508 41.8735 69.4508Z" fill="white"/>
<path d="M43.3474 72.3141C43.2544 72.3141 43.162 72.2739 43.0993 72.1963C42.989 72.0604 43.0106 71.8614 43.1471 71.7519L54.4766 62.6748C54.6135 62.5646 54.8141 62.5864 54.924 62.7223C55.0343 62.8582 55.0127 63.0572 54.8762 63.1668L43.547 72.2438C43.4882 72.291 43.4171 72.3141 43.3474 72.3141Z" fill="white"/>
<path d="M44.6011 75.3751C44.5084 75.3751 44.4161 75.3349 44.3533 75.2577C44.243 75.1217 44.2643 74.9224 44.4011 74.8129L55.7303 65.7358C55.8671 65.6259 56.0678 65.6477 56.1777 65.7833C56.288 65.9192 56.2667 66.1182 56.1299 66.2281L44.8007 75.3052C44.7419 75.3524 44.6712 75.3751 44.6011 75.3751Z" fill="white"/>
<path d="M45.6466 78.6245C45.5536 78.6245 45.4616 78.5843 45.3988 78.5067C45.2882 78.3711 45.3098 78.1718 45.4467 78.0623L56.7758 68.9852C56.9127 68.8753 57.1133 68.8968 57.2233 69.0327C57.3335 69.1686 57.3123 69.3676 57.1754 69.4771L45.8463 78.5542C45.7875 78.6017 45.7167 78.6245 45.6466 78.6245Z" fill="white"/>
<path d="M49.8745 51.4164C49.7818 51.4164 49.6895 51.3764 49.6267 51.2989C49.5164 51.163 49.5377 50.964 49.6745 50.8545L51.5895 49.2882C51.726 49.1779 51.927 49.2001 52.0369 49.3357C52.1472 49.4713 52.1259 49.6706 51.9891 49.7801L50.0741 51.3464C50.0153 51.3936 49.9446 51.4164 49.8745 51.4164Z" fill="white"/>
<path d="M52.0726 53.6267C51.9796 53.6267 51.8872 53.5865 51.8245 53.5093C51.7142 53.3733 51.7355 53.1744 51.8723 53.0645L53.7872 51.4982C53.9241 51.3883 54.1247 51.4104 54.2347 51.5457C54.3449 51.6816 54.3237 51.8809 54.1868 51.9905L52.2719 53.5568C52.2131 53.604 52.1424 53.6267 52.0726 53.6267Z" fill="white"/>
<path d="M54.0176 56.0644C53.9249 56.0644 53.8326 56.0245 53.7698 55.947C53.6595 55.811 53.6808 55.6121 53.8176 55.5022L55.7325 53.9359C55.8694 53.826 56.07 53.8478 56.18 53.9834C56.2903 54.1194 56.269 54.3186 56.1321 54.4282L54.2172 55.9945C54.1584 56.0417 54.0877 56.0644 54.0176 56.0644Z" fill="white"/>
<path d="M55.7219 58.7199C55.6289 58.7199 55.5366 58.6797 55.4738 58.6021C55.3635 58.4665 55.3851 58.2672 55.5216 58.1577L57.4365 56.5914C57.5734 56.4812 57.774 56.5033 57.884 56.6389C57.9946 56.7748 57.973 56.9738 57.8361 57.0833L55.9212 58.6496C55.8627 58.6968 55.7917 58.7199 55.7219 58.7199Z" fill="white"/>
<path d="M57.1955 61.5829C57.1024 61.5829 57.0104 61.5427 56.9477 61.4655C56.837 61.3295 56.8586 61.1302 56.9955 61.0207L58.9104 59.4544C59.0473 59.3445 59.2479 59.3663 59.3578 59.5019C59.4681 59.6379 59.4465 59.8368 59.31 59.9467L57.3951 61.513C57.3363 61.5602 57.2655 61.5829 57.1955 61.5829Z" fill="white"/>
<path d="M58.45 64.644C58.357 64.644 58.2647 64.604 58.2019 64.5265C58.0916 64.3905 58.1129 64.1916 58.2497 64.082L60.1647 62.5157C60.3015 62.4055 60.5022 62.4273 60.6121 62.5632C60.7224 62.6989 60.7011 62.8982 60.5643 63.0077L58.6493 64.574C58.5905 64.6212 58.5198 64.644 58.45 64.644Z" fill="white"/>
<path d="M59.4946 67.8934C59.402 67.8934 59.3096 67.8534 59.2468 67.7759C59.1366 67.6399 59.1578 67.441 59.2947 67.3311L61.2096 65.7648C61.3465 65.6549 61.5471 65.6767 61.657 65.8127C61.7673 65.9483 61.746 66.1476 61.6092 66.2571L59.6943 67.8234C59.6355 67.8706 59.5647 67.8934 59.4946 67.8934Z" fill="white"/>
<path d="M68.1094 64.3249C65.5221 52.464 59.0585 42.8253 59.0585 42.8253V44.3081H56.4746V45.7906H53.8874V47.2731H51.3031V48.7559H48.7192V50.2384H46.135L46.1316 50.2417V51.7212H43.5507L43.5477 51.7242V53.2037H40.9668L40.9602 53.207V54.6862H38.3825L38.3762 54.6895V56.1691L35.792 56.172C35.792 56.172 42.5864 64.2681 44.7631 77.7158C46.3004 87.2123 44.8398 102.876 44.8398 102.876L46.1326 100.653L47.4254 101.393L48.7179 99.1705L50.0087 99.9119L51.3035 97.6877L52.5946 98.4292L53.8887 96.2049L55.1808 96.9459L55.1825 96.9453L56.4743 94.7225L57.7671 95.4632L59.0595 93.2396L60.352 93.9807L60.353 93.9803L61.6451 91.7568L62.9375 92.4982L64.2303 90.2739L65.5235 91.0154L66.8159 88.7915L68.1094 89.5325C68.1094 89.5325 70.6235 75.8697 68.1094 64.3249Z" fill="#FAFAF9"/>
<path d="M68.109 64.3249L68.2714 64.2899C65.6748 52.3927 59.2019 42.7435 59.1963 42.7339L58.892 42.2802V44.1431H56.3081V45.6256H53.7209V47.1081H51.1366V48.5909H48.5527V50.0734H46.0658L46.014 50.1249L45.9652 50.1734V51.5563H43.4816L43.4297 51.6077L43.3812 51.6559V53.0387H40.9272L40.8857 53.0592L40.7937 53.1051V54.5212H38.3429L38.3014 54.542L38.2098 54.5876V56.0041L35.4375 56.0077L35.664 56.2776C35.6644 56.2779 35.6893 56.3076 35.7388 56.3693C36.4825 57.2942 42.5654 65.1755 44.599 77.7422C45.1264 81.0012 45.3005 85.0022 45.3005 88.8426C45.3005 92.4922 45.1437 95.9977 44.9869 98.5901C44.9089 99.8865 44.8305 100.954 44.7717 101.698C44.7129 102.442 44.674 102.86 44.674 102.861L44.6039 103.61L46.193 100.878L47.4858 101.619L48.7783 99.3958L50.0691 100.137L51.3638 97.9131L52.6546 98.6548L53.9491 96.4302L55.1797 97.136L55.2638 97.0888L55.303 97.0667L56.5347 94.9478L57.8274 95.6885L59.1199 93.4649L60.3519 94.1713L60.4356 94.1233L60.4741 94.1011L61.7055 91.9821L62.9979 92.7235L64.2907 90.4993L65.5838 91.2407L66.8763 89.0165L68.2299 89.7922L68.2724 89.5622C68.2734 89.5559 69.3921 83.4762 69.3924 75.9911C69.3924 72.2484 69.1128 68.1544 68.2714 64.2899L68.109 64.3249L67.9465 64.3599C68.7813 68.192 69.0603 72.2649 69.0603 75.9911C69.0603 79.7177 68.7816 83.0971 68.5026 85.5443C68.3631 86.7678 68.2239 87.758 68.1193 88.4423C68.0671 88.7842 68.0236 89.0498 67.993 89.2296C67.9628 89.4094 67.9455 89.5025 67.9455 89.5028L68.109 89.5325L68.192 89.3896L66.7547 88.5661L65.4623 90.79L64.1691 90.0486L62.8764 92.2728L61.5839 91.5314L60.2084 93.8978L60.3526 93.9803L60.2692 93.8378L60.2685 93.8381L60.3516 93.9807L60.4346 93.8378L58.9983 93.0142L57.7059 95.2378L56.4131 94.497L55.0382 96.8628L55.1821 96.9453L55.1004 96.8018L55.0987 96.8025L55.1804 96.9459L55.2635 96.8031L53.8275 95.9799L52.5334 98.2038L51.2426 97.4624L49.9478 99.6866L48.657 98.9451L47.3642 101.168L46.0714 100.428L44.6956 102.793L44.8394 102.876L45.0045 102.891C45.0049 102.888 45.6323 96.1599 45.6327 88.8426C45.6323 84.9917 45.4589 80.9784 44.9268 77.6897C42.7422 64.1985 35.9301 56.0803 35.9191 56.0664L35.7916 56.172L35.7919 56.337L38.5419 56.3337V54.6895H38.3758L38.4502 54.837L38.4566 54.8337L38.3821 54.6862V54.8512H41.1258V53.207H40.9597L41.0342 53.3545L41.0405 53.3512L40.9664 53.2037V53.3687H43.7134V51.7242H43.5473L43.6646 51.841L43.6679 51.8377L43.5503 51.7212V51.8862H46.2973V50.2417H46.1312L46.2488 50.3582L46.2518 50.3552L46.1346 50.2384V50.4034H48.8849V48.9209H51.4688V47.4381H54.053V45.9556H56.6403V44.4731H59.2242V42.8253H59.0581L58.9199 42.9167C58.9199 42.917 58.9445 42.9533 58.992 43.0262C59.7062 44.119 65.5294 53.2747 67.9465 64.3599L68.109 64.3249Z" fill="#DADBD8"/>
<path d="M53.8887 51.8872C53.8316 51.8872 53.7755 51.8578 53.7449 51.8047C53.6991 51.7259 53.7263 51.6249 53.8057 51.5797L60.269 47.8726C60.348 47.8271 60.45 47.8538 60.4958 47.933C60.5417 48.0119 60.5144 48.1128 60.4351 48.1584L53.9718 51.8651L53.8887 51.8872Z" fill="#DADBD8"/>
<path d="M54.4917 52.9991C54.4349 52.9991 54.3787 52.9698 54.3482 52.9167C54.302 52.8378 54.3292 52.7372 54.4086 52.6916L60.8722 48.9846C60.9516 48.939 61.0533 48.9661 61.0991 49.045C61.1453 49.1238 61.118 49.2248 61.0383 49.2703L54.5747 52.977L54.4917 52.9991Z" fill="#DADBD8"/>
<path d="M57.7667 52.6286C57.7095 52.6286 57.6534 52.5993 57.6228 52.5461C57.577 52.4673 57.6042 52.3663 57.6836 52.3211L61.4168 50.18C61.4959 50.1342 61.5979 50.1609 61.6437 50.2401C61.6895 50.3189 61.6623 50.4199 61.5829 50.4654L57.8497 52.6065L57.7667 52.6286Z" fill="#DADBD8"/>
<path d="M58.2642 53.8257C58.2071 53.8257 58.151 53.7963 58.1204 53.7432C58.0746 53.6644 58.1018 53.5634 58.1812 53.5182L61.9147 51.3768C61.9935 51.3306 62.0958 51.358 62.1416 51.4371C62.1874 51.516 62.1602 51.617 62.0808 51.6625L58.3473 53.8036L58.2642 53.8257Z" fill="#DADBD8"/>
<path d="M43.5469 65.0673L62.9374 53.9465L63.8585 56.3839L44.47 67.5034L43.5469 65.0673Z" fill="#DB6C1D"/>
<path d="M44.47 67.5034L43.5469 65.0673L62.9374 53.9465L63.8585 56.3839L44.47 67.5034Z" fill="#D96D1F"/>
<path d="M64.2299 57.6535L44.7617 68.8186C46.2963 73.7006 47.333 79.622 47.6386 84.9864L67.3998 73.5999C66.8315 64.2091 64.2299 57.6535 64.2299 57.6535ZM64.0549 58.1349C64.5877 59.6154 66.5508 65.519 67.0557 73.4168L47.9376 84.4327C47.5958 79.2082 46.592 73.6204 45.1577 68.9726L64.0549 58.1349Z" fill="#DB6C1D"/>
<path d="M50.6704 82.9377C50.3774 77.535 49.175 70.8329 47.8735 67.3486L48.1848 67.2338C49.4962 70.7452 50.7076 77.4888 51.0019 82.9195L50.6704 82.9377Z" fill="#DB6C1D"/>
<path d="M65.2678 74.5753C65.0034 71.0382 64.258 64.3133 62.2368 59.0129L62.5474 58.8965C64.5836 64.2351 65.3333 70.9959 65.5993 74.5509L65.2678 74.5753Z" fill="#DB6C1D"/>
<path d="M63.4484 75.6526C63.186 72.1013 62.4426 65.3491 60.4131 60.0259L60.7237 59.9094C62.7681 65.2712 63.5158 72.0594 63.7799 75.6285L63.4484 75.6526Z" fill="#DB6C1D"/>
<path d="M45.7652 71.3988L45.5991 71.1134L64.8358 60.0813L65.0019 60.3671L45.7652 71.3988Z" fill="#DB6C1D"/>
<path d="M46.3692 74.018L46.2031 73.7323L65.4398 62.7002L65.6059 62.9856L46.3692 74.018Z" fill="#DB6C1D"/>
<path d="M46.9737 76.6365L46.8076 76.3511L66.0443 65.3191L66.2104 65.6048L46.9737 76.6365Z" fill="#DB6C1D"/>
<path d="M47.5772 79.2557L47.4111 78.97L66.6482 67.9379L66.8142 68.2233L47.5772 79.2557Z" fill="#DB6C1D"/>
<path d="M47.8482 82.0716L47.6821 81.7862L66.9192 70.7537L67.0852 71.0392L47.8482 82.0716Z" fill="#DB6C1D"/>
<path d="M67.5745 76.494L67.3995 81.0424L61.645 84.3427V79.8945L67.5745 76.494Z" fill="#DB6C1D"/>
<path d="M61.645 84.3427V83.1452C62.1084 83.2917 62.5482 83.3498 62.9421 83.3498C63.1139 83.3498 63.2773 83.3389 63.4297 83.3191L61.645 84.3427ZM64.8786 82.4883C64.9195 82.3441 64.9428 82.1814 64.9428 82.0052C64.9428 81.9518 64.9408 81.897 64.9364 81.8413C64.8458 81.4615 64.7697 81.181 64.6926 80.9194C64.6235 80.627 64.5305 80.3178 64.4209 79.9981C64.3512 79.7949 64.2821 79.5745 64.2117 79.3435C64.21 79.3382 64.2083 79.3329 64.207 79.328C64.207 79.328 64.207 79.328 64.2067 79.328C64.1316 79.0808 64.0549 78.8222 63.9742 78.5589L67.5745 76.494L67.3995 81.0424L64.8786 82.4883Z" fill="#D96D1F"/>
<path d="M48.7186 94.8875C48.6614 94.8875 48.6053 94.8577 48.5747 94.805C48.5286 94.7257 48.5558 94.625 48.6355 94.5795L67.3168 83.8652C67.3955 83.8197 67.4979 83.8464 67.5434 83.9256C67.5895 84.0045 67.5623 84.1054 67.4829 84.151L48.8016 94.8649L48.7186 94.8875Z" fill="#DADBD8"/>
<path d="M56.4741 91.9217C56.417 91.9217 56.3612 91.8924 56.3306 91.8392C56.2844 91.7604 56.3117 91.6594 56.3911 91.6142L67.1333 85.4467C67.2117 85.4012 67.3136 85.4282 67.3602 85.5071C67.406 85.5859 67.3787 85.6869 67.2994 85.7324L56.5571 91.8996L56.4741 91.9217Z" fill="#DADBD8"/>
<path d="M56.1094 89.1399C56.1094 89.1399 54.0842 87.9933 53.1441 87.3756C52.3941 86.8916 51.5544 86.5378 49.9231 86.2702C51.7168 86.2462 53.9081 86.4418 53.9081 86.4418L56.3549 88.6835L56.1094 89.1399ZM53.932 96.4695C53.932 96.4695 53.2445 95.9029 51.4438 95.0823C50.1168 94.475 48.8416 93.9015 45.987 93.1531C47.4698 93.4141 51.4647 93.7883 51.8965 93.8708C52.3217 93.9566 54.2569 95.0277 54.2569 95.0277L53.932 96.4695ZM64.4212 79.9981C63.8887 78.4463 63.3981 75.9096 62.0292 75.1507C60.6574 74.3955 58.978 73.8293 55.9264 72.6998C52.8678 71.5704 51.2677 71.4981 49.671 71.3335C48.0743 71.1619 41.7848 70.6914 36.967 70.7808C32.153 70.8666 32.0423 71.5978 30.9572 72.9057C29.4435 74.7353 28.394 75.7694 23.5027 80.6636C18.4658 85.7031 16.13 87.5782 11.455 88.7707C7.91773 89.6731 4.82394 90.3185 3.89268 90.5217V90.525C1.56637 90.9738 0 93.4046 0 97.2205C0 102.915 3.48528 109.529 7.78436 111.995C9.69963 113.093 11.4523 113.181 12.8082 112.439L12.8164 112.437C14.0593 111.764 17.7528 109.75 19.3656 108.949C22.1009 107.592 23.1628 107.533 26.4259 107.697C31.0091 107.928 33.8822 105.387 36.0051 103.396C36.6724 102.77 37.3839 101.598 38.3827 100.994C39.3812 100.386 40.4989 99.4286 41.0347 99.2467C42.7039 98.6769 46.0076 99.844 48.2886 100.369C50.5695 100.898 53.5936 102.501 55.5012 102.484C57.9204 102.467 58.9467 100.888 58.0379 99.7924C57.1082 98.6699 55.947 97.9592 55.947 97.9592C55.947 97.9592 56.9561 97.0324 58.5285 95.412C60.1043 93.7883 59.2922 91.7594 59.2922 91.7594C59.2922 91.7594 60.4707 90.0189 61.2241 88.8551C61.9778 87.6947 61.7735 85.4978 61.2207 84.3786C60.6677 83.2561 57.0806 80.5132 57.0806 80.5132L58.767 80.9867C60.6574 83.4551 62.8623 83.5511 63.9784 83.201C65.0984 82.8542 64.9533 81.5499 64.4212 79.9981Z" fill="#FFBE9D"/>
<path d="M46.3718 92.5945C44.5054 92.3025 44.3121 91.8726 42.5931 90.2921C42.9216 91.7818 44.9299 92.9835 45.9878 93.1515C47.4686 93.4145 51.4659 93.787 51.8961 93.8688C52.3216 93.9549 54.2554 95.0279 54.2554 95.0279C53.9761 95.6697 53.8685 96.1508 53.9306 96.4721L55.9478 97.9616C55.9478 97.9616 56.8942 97.0888 58.3749 95.5691L58.3746 95.5687C58.3746 95.5687 56.5019 96.6189 55.6117 96.1887C54.7211 95.7585 55.3041 94.9108 54.5647 94.4871C53.8256 94.0634 52.0432 93.233 51.3829 93.0838C50.7225 92.9344 48.2386 92.8865 46.3718 92.5945ZM56.1083 89.1402C56.1083 89.1402 58.8941 90.7923 59.2934 91.7581C59.0951 90.237 57.9624 89.6193 57.2758 88.6021C57.0878 88.3232 55.2539 86.3062 54.192 85.5681C53.1297 84.8297 51.5184 85.254 49.261 85.2876C47.0036 85.321 44.894 84.6363 43.2681 83.9236C44.342 85.0709 48.1031 85.8826 49.9223 86.2696C51.2032 86.263 52.5348 86.3254 53.907 86.4431L56.355 88.6822L56.1083 89.1402ZM40.998 76.8527C41.6979 77.0318 42.434 76.9955 43.1525 77.0315C45.3099 77.0546 47.4739 76.9645 49.625 76.8847C50.3435 76.8461 51.0241 76.8718 51.6772 77.113C53.6698 77.8749 57.0812 80.5122 57.0812 80.5122L58.7652 80.9867C60.2211 82.8846 61.8577 83.3779 63.0445 83.3472C62.4337 83.0334 61.9517 82.4286 61.5886 81.6571C60.9934 80.3914 61.9261 79.5425 62.0404 79.4128C62.1547 79.2828 60.6815 80.0813 59.225 79.883C58.1169 79.7325 56.1528 79.1419 54.766 78.5153C53.8558 77.8089 52.8879 77.181 51.8127 76.7382C51.1128 76.461 50.3239 76.43 49.6114 76.4633C47.4497 76.5405 45.3042 76.7124 43.1482 76.8246C42.4317 76.8606 41.7115 76.9322 40.998 76.8527Z" fill="#EB996E"/>
<path d="M53.7015 79.681C53.9324 79.9381 53.9792 80.2872 54.0031 80.6178C54.0314 81.0012 54.0785 81.3882 54.0732 81.7726C54.0729 81.8076 54.1134 81.8248 54.1184 81.7832C54.1486 81.5423 54.1911 81.2955 54.1941 81.0527C54.1971 80.8412 54.1901 80.6313 54.1666 80.4211C54.1307 80.0974 54.0613 79.7483 53.7945 79.5326C53.7221 79.4742 53.652 79.6256 53.7015 79.681ZM52.1859 79.8849C52.2745 80.1624 52.4117 80.4257 52.5482 80.6828C52.6153 80.8095 52.6854 80.9349 52.7585 81.0583C52.8306 81.181 52.9249 81.283 53.0292 81.3793C53.0724 81.4186 53.0893 81.3318 53.079 81.3044C53.0289 81.1695 52.9771 81.0365 52.9013 80.9131C52.8296 80.796 52.7605 80.6765 52.6937 80.5561C52.5536 80.3023 52.438 80.0357 52.2958 79.7837C52.2513 79.7045 52.1689 79.8312 52.1859 79.8849ZM53.3381 80.7903C53.5291 81.6479 53.577 82.5721 53.4816 83.4438L53.4959 83.4511C53.6623 82.5064 53.7922 81.5756 53.5467 80.6323C53.3461 79.8605 52.9691 79.1449 52.339 78.64C52.2971 78.6064 52.2676 78.711 52.2928 78.739C52.8097 79.3197 53.1704 80.0351 53.3381 80.7903Z" fill="#AA3B4B"/>
<path d="M51.8711 90.6979C51.8445 90.9807 51.8136 91.2763 51.8644 91.5578C51.8761 91.6228 51.9369 91.5878 51.9465 91.5419C52.0571 91.0117 52.077 90.4604 52.166 89.9252C52.2109 89.6549 52.265 89.386 52.3288 89.1197C52.3896 88.8653 52.4896 88.6093 52.5211 88.3496C52.5334 88.246 52.4178 88.2833 52.3883 88.3443C52.276 88.575 52.2192 88.8366 52.1557 89.0838C52.088 89.3481 52.0292 89.6147 51.9804 89.8829C51.9309 90.1528 51.8967 90.425 51.8711 90.6979ZM51.0533 90.2964C51.0696 90.3511 51.1323 90.3346 51.1519 90.2908C51.1984 90.1885 51.2144 90.0657 51.2327 89.9549C51.2499 89.8496 51.2699 89.7453 51.2934 89.6414C51.3386 89.4414 51.3848 89.2431 51.4469 89.0475C51.4565 89.0175 51.4585 88.9643 51.4203 88.9515C51.3821 88.9386 51.3519 88.9818 51.3403 89.0115C51.2612 89.2197 51.1878 89.4332 51.1367 89.65C51.1121 89.7546 51.0902 89.8602 51.0709 89.9657C51.0523 90.0667 51.0237 90.1964 51.0533 90.2964ZM52.6274 90.6389C52.6121 90.6699 52.6268 90.7708 52.6746 90.7177C52.8716 90.4983 52.9878 90.2185 53.0476 89.9337C53.1021 89.6737 53.1154 89.4127 53.0503 89.1541C53.0323 89.0821 52.9549 89.157 52.9559 89.2012C52.9612 89.454 52.9523 89.713 52.8918 89.9595C52.8337 90.1967 52.7334 90.4201 52.6274 90.6389Z" fill="#AA3B4B"/>
<path d="M49.3807 97.6468C49.3724 97.7158 49.3767 97.7782 49.381 97.8474C49.3853 97.9134 49.377 97.9732 49.4222 98.0259C49.4521 98.0606 49.5063 98.0269 49.5242 97.9975C49.5634 97.9339 49.5697 97.8748 49.5846 97.8038C49.5986 97.7363 49.6152 97.6748 49.6218 97.6056C49.6331 97.4861 49.6484 97.3673 49.6674 97.2488C49.7062 97.0064 49.7507 96.7655 49.8182 96.529C49.8301 96.4863 49.8291 96.4217 49.7723 96.4121C49.7182 96.4032 49.671 96.4586 49.6547 96.5042C49.5687 96.7464 49.4903 96.9965 49.4428 97.2496C49.4179 97.3812 49.3966 97.5136 49.3807 97.6468ZM50.7505 98.0698C50.7373 98.0859 50.7349 98.1682 50.7728 98.149C50.9123 98.0794 51.0246 97.9527 51.1099 97.8253C51.1976 97.6936 51.2584 97.5406 51.2996 97.3888L51.2764 97.3234L51.2245 97.3581C51.1774 97.488 51.1119 97.6088 51.0316 97.7213C50.989 97.7807 50.9442 97.8378 50.8997 97.896C50.8529 97.9567 50.7994 98.0107 50.7505 98.0698ZM50.0337 98.0428C49.9929 98.2539 49.9504 98.4829 49.9673 98.698C49.9723 98.7594 50.039 98.7548 50.0603 98.7056C50.242 98.2873 50.3068 97.8112 50.3898 97.3657C50.4247 97.1786 50.4576 96.9912 50.5047 96.8067C50.5542 96.6144 50.6423 96.4372 50.6981 96.2488C50.7157 96.1881 50.6741 96.0924 50.6077 96.1656C50.3257 96.4784 50.2563 96.9427 50.1729 97.3393C50.1237 97.5732 50.0792 97.8078 50.0337 98.0428Z" fill="#AA3B4B"/>
<path d="M51.1578 73.7768C51.1658 73.9982 51.206 74.2183 51.2761 74.4285C51.3096 74.5291 51.3578 74.6456 51.4205 74.732C51.4551 74.7799 51.4936 74.8274 51.5292 74.8756C51.5611 74.9188 51.5929 74.9574 51.6338 74.9924C51.6796 75.0316 51.7092 74.9247 51.6969 74.8957C51.674 74.8426 51.6461 74.7931 51.6195 74.7413C51.5946 74.6931 51.5797 74.6476 51.5624 74.5967C51.5458 74.5473 51.5189 74.4997 51.4999 74.4509C51.482 74.4044 51.4667 74.3569 51.4494 74.3103C51.3764 74.1111 51.3335 73.9045 51.3206 73.6927C51.3172 73.6432 51.2681 73.6247 51.2272 73.6445C51.1781 73.6686 51.1561 73.7257 51.1578 73.7768ZM52.9183 73.4607C52.8944 73.4848 52.8841 73.5251 52.894 73.5574C52.9209 73.6445 52.9585 73.7283 52.986 73.8151C53.0126 73.8995 53.0352 73.985 53.0531 74.0715C53.0717 74.1612 53.0837 74.2519 53.096 74.3427C53.1079 74.4291 53.1073 74.5189 53.1309 74.603C53.1468 74.6604 53.2053 74.607 53.2116 74.5736C53.2468 74.3862 53.2119 74.1797 53.1717 73.9956C53.1325 73.8167 53.0817 73.6191 52.9874 73.4604L52.9183 73.4607ZM51.7597 72.584C52.1457 73.6521 52.3918 74.7522 52.432 75.8879C52.4336 75.9403 52.4815 75.9182 52.4868 75.8803C52.6492 74.7162 52.4738 73.502 51.9188 72.4567C51.8597 72.3448 51.7285 72.4979 51.7597 72.584Z" fill="#AA3B4B"/>
<path d="M35.7145 91.4189C35.7839 91.503 35.9198 91.4674 36.0178 91.4189C36.1812 91.3377 36.336 91.2404 36.5014 91.1638C37.1295 90.8731 37.8942 90.8969 38.5665 90.7695L38.6219 90.7478C38.6804 90.696 38.5927 90.6108 38.5186 90.5851C38.0191 90.4115 37.4813 90.3109 36.9588 90.3954C36.8203 90.4175 36.3732 90.5805 36.04 90.7946C35.7474 90.983 35.5431 91.2113 35.7145 91.4189ZM34.3699 83.4864C34.2144 83.6441 34.0859 83.825 33.9935 84.0259C33.9424 84.1381 33.7929 84.538 34.1002 84.4271C34.4536 84.2998 34.6961 83.9955 35.0106 83.7992C35.9168 83.2347 37.0704 83.2812 38.0875 83.0849C38.14 82.9783 37.9858 82.8922 37.8683 82.8717C37.1083 82.7381 36.3204 82.6407 35.571 82.8242C35.2182 82.9103 34.8771 83.0677 34.5898 83.2911C34.5124 83.3515 34.4386 83.4168 34.3699 83.4864ZM30.3285 80.8207C30.9283 80.2796 31.4816 79.6774 32.051 79.1023C32.5209 78.6281 32.9337 78.0633 33.498 77.6924C34.0656 77.3192 34.7897 77.2222 35.4537 77.1961C35.765 77.1839 36.0762 77.1717 36.3875 77.1598C36.5901 77.1519 36.795 77.1433 36.9893 77.0863C36.9445 77.016 36.8538 76.9926 36.7721 76.9754C36.1476 76.8444 35.5149 76.6989 34.8754 76.7322C34.328 76.7606 33.7866 76.8899 33.2963 77.1361C32.6408 77.4657 32.0988 78.0501 31.6556 78.6222C31.1545 79.2693 30.6142 79.9014 30.1651 80.5828C30.0761 80.7178 30.1506 80.9814 30.3285 80.8207Z" fill="#EB996E"/>
<path d="M64.2072 79.328C63.2499 79.8186 63.0277 80.9731 63.1234 81.5618C63.2087 82.0874 63.3921 82.3741 63.624 82.7559C64.167 83.6497 65.026 82.9813 64.9367 81.8413C64.6905 80.8085 64.5514 80.5102 64.2072 79.328Z" fill="#C35363"/>
<path d="M64.2052 83.1696C64.1703 83.1696 64.1351 83.166 64.0995 83.1578C63.9344 83.1205 63.768 82.9931 63.6239 82.7559C63.392 82.3741 63.2087 82.0874 63.1233 81.5618C63.11 81.4803 63.103 81.3876 63.103 81.2876C63.1034 80.6656 63.3827 79.7506 64.2071 79.328C64.5513 80.5102 64.6904 80.8085 64.9366 81.8412C64.9409 81.897 64.9429 81.9518 64.9429 82.0052C64.9426 82.6912 64.5921 83.17 64.2052 83.1696Z" fill="#D67E8D"/>
<path d="M63.1123 81.1051C63.5225 80.7996 63.9567 80.3014 64.3028 79.6507C64.2726 79.55 64.2413 79.4441 64.2075 79.328C63.4601 79.7111 63.1621 80.498 63.1123 81.1051Z" fill="white"/>
<path d="M56.3796 98.279C56.7078 99.1699 56.4922 99.7213 56.2803 100.285C56.6643 100.736 57.2054 101.213 57.6412 101.333C58.3228 101.521 58.8718 100.467 57.9451 99.5906C56.9018 98.603 56.3796 98.279 56.3796 98.279Z" fill="#C35363"/>
<path d="M57.8003 101.355C57.7484 101.355 57.695 101.348 57.6412 101.333C57.2054 101.213 56.6643 100.736 56.2803 100.285C56.4135 99.9305 56.5483 99.5807 56.5483 99.1484C56.5483 98.8933 56.5015 98.6096 56.3796 98.279C56.3796 98.279 56.9018 98.603 57.9451 99.5906C58.2968 99.9231 58.436 100.281 58.436 100.587C58.436 101.024 58.1534 101.355 57.8003 101.355Z" fill="#D67E8D"/>
<path d="M56.3796 98.279C56.9944 98.6684 57.6285 99.8651 56.2803 100.285C56.4922 99.7213 56.7078 99.1699 56.3796 98.279Z" fill="white"/>
</g>
<defs>
<clipPath id="clip0_299_1599">
<rect width="146" height="127" fill="white"/>
</clipPath>
</defs>
</svg>
