<svg width="40" height="40" viewBox="0 0 40 40" fill="none" xmlns="http://www.w3.org/2000/svg">
<rect width="40" height="40" rx="20" fill="#F5F5F5"/>
<path d="M16.5 26.7083C16.0216 26.7083 15.625 26.3117 15.625 25.8333V20.945L14.785 21.785C14.4466 22.1233 13.8866 22.1233 13.5483 21.785C13.21 21.4467 13.21 20.8867 13.5483 20.5483L15.8816 18.215C16.1266 17.97 16.5116 17.8883 16.8383 18.0283C17.165 18.1567 17.375 18.4833 17.375 18.8333V25.8333C17.375 26.3117 16.9783 26.7083 16.5 26.7083Z" fill="#DB6C1D"/>
<path d="M18.8333 22.0417C18.6117 22.0417 18.39 21.96 18.215 21.785L15.8817 19.4517C15.5433 19.1133 15.5433 18.5533 15.8817 18.215C16.22 17.8767 16.78 17.8767 17.1183 18.215L19.4517 20.5483C19.79 20.8867 19.79 21.4467 19.4517 21.785C19.2767 21.96 19.055 22.0417 18.8333 22.0417Z" fill="#DB6C1D"/>
<path d="M23.5 32.5417H16.5C10.165 32.5417 7.45837 29.835 7.45837 23.5V16.5C7.45837 10.165 10.165 7.45833 16.5 7.45833H22.3334C22.8117 7.45833 23.2084 7.855 23.2084 8.33333C23.2084 8.81167 22.8117 9.20833 22.3334 9.20833H16.5C11.1217 9.20833 9.20837 11.1217 9.20837 16.5V23.5C9.20837 28.8783 11.1217 30.7917 16.5 30.7917H23.5C28.8784 30.7917 30.7917 28.8783 30.7917 23.5V17.6667C30.7917 17.1883 31.1884 16.7917 31.6667 16.7917C32.145 16.7917 32.5417 17.1883 32.5417 17.6667V23.5C32.5417 29.835 29.835 32.5417 23.5 32.5417Z" fill="#DB6C1D"/>
<path d="M31.6667 18.5417H27C23.01 18.5417 21.4584 16.99 21.4584 13V8.33333C21.4584 7.98333 21.6684 7.65667 21.995 7.52833C22.3217 7.38833 22.695 7.47 22.9517 7.715L32.285 17.0483C32.53 17.2933 32.6117 17.6783 32.4717 18.005C32.3317 18.3317 32.0167 18.5417 31.6667 18.5417ZM23.2084 10.445V13C23.2084 16.01 23.99 16.7917 27 16.7917H29.555L23.2084 10.445Z" fill="#DB6C1D"/>
</svg>
